<?xml version="1.0" encoding="UTF-8"?>
<svg width="16px" height="20px" viewBox="0 0 16 20" version="1.1" xmlns="http://www.w3.org/2000/svg" xmlns:xlink="http://www.w3.org/1999/xlink">
    <!-- Generator: Sketch 49.2 (51160) - http://www.bohemiancoding.com/sketch -->
    <title>Icons/24/Propiedades/ic_apartamento</title>
    <desc>Created with Sketch.</desc>
    <defs>
        <path d="M7,14.6315789 L8,14.6315789 L8,13.5789474 L7,13.5789474 L7,14.6315789 Z M6,15.6842105 L9,15.6842105 L9,12.5263158 L6,12.5263158 L6,15.6842105 Z M17,19.8947368 C17.276,19.8947368 17.5,19.6589474 17.5,19.3684211 L17.5,9.89473684 C17.5,9.60421053 17.276,9.36842105 17,9.36842105 C16.724,9.36842105 16.5,9.60421053 16.5,9.89473684 L16.5,19.3684211 C16.5,19.6589474 16.724,19.8947368 17,19.8947368 M15,20.9473684 L19,20.9473684 L19,8.31578947 L15,8.31578947 L15,20.9473684 Z M14,7.26315789 L14,20.9473684 L11,20.9473684 L11,16.7368421 L8,16.7368421 L8,20.9473684 L5,20.9473684 L5,3.05263158 L14,3.05263158 L14,7.26315789 Z M9,20.9473684 L10,20.9473684 L10,17.7894737 L9,17.7894737 L9,20.9473684 Z M15,7.26315789 L15,2 L4,2 L4,22 L8,22 L11,22 L14,22 L15,22 L20,22 L20,7.26315789 L15,7.26315789 Z M11,10.4210526 L12,10.4210526 L12,9.36842105 L11,9.36842105 L11,10.4210526 Z M10,11.4736842 L13,11.4736842 L13,8.31578947 L10,8.31578947 L10,11.4736842 Z M7,10.4210526 L8,10.4210526 L8,9.36842105 L7,9.36842105 L7,10.4210526 Z M6,11.4736842 L9,11.4736842 L9,8.31578947 L6,8.31578947 L6,11.4736842 Z M11,6.21052632 L12,6.21052632 L12,5.15789474 L11,5.15789474 L11,6.21052632 Z M10,7.26315789 L13,7.26315789 L13,4.10526316 L10,4.10526316 L10,7.26315789 Z M11,14.6315789 L12,14.6315789 L12,13.5789474 L11,13.5789474 L11,14.6315789 Z M10,15.6842105 L13,15.6842105 L13,12.5263158 L10,12.5263158 L10,15.6842105 Z M7,6.21052632 L8,6.21052632 L8,5.15789474 L7,5.15789474 L7,6.21052632 Z M6,7.26315789 L9,7.26315789 L9,4.10526316 L6,4.10526316 L6,7.26315789 Z" id="path-1"></path>
    </defs>
    <g id="Desktop" stroke="none" stroke-width="1" fill="none" fill-rule="evenodd">
        <g id="03.05_Detalle-de-propiedad-configuraciones" transform="translate(-582.000000, -876.000000)">
            <g id="Carateristicas" transform="translate(128.000000, 854.000000)">
                <g id="Terreno-Copy" transform="translate(442.000000, 16.000000)">
                    <g id="Icons/24/Propiedades/ic_apartamento" transform="translate(8.000000, 4.000000)">
                        <mask id="mask-2" fill="white">
                            <use xlink:href="#path-1"></use>
                        </mask>
                        <g id="Combined-Shape"></g>
                        <g id="Colors/Darker" mask="url(#mask-2)" fill="#404041" fill-rule="evenodd">
                            <rect id="color" x="0" y="0" width="24" height="24"></rect>
                        </g>
                    </g>
                </g>
            </g>
        </g>
    </g>
</svg>