<?xml version="1.0" encoding="UTF-8"?>
<svg width="20px" height="20px" viewBox="0 0 20 20" version="1.1" xmlns="http://www.w3.org/2000/svg" xmlns:xlink="http://www.w3.org/1999/xlink">
    <!-- Generator: Sketch 49.2 (51160) - http://www.bohemiancoding.com/sketch -->
    <title>Icons/24/Propiedades/ic_bathroom</title>
    <desc>Created with Sketch.</desc>
    <defs>
        <path d="M21.047619,13.2196189 C21.047619,13.4888898 20.8342857,13.7074284 20.5714286,13.7074284 L3.42857143,13.7074284 C3.16571429,13.7074284 2.95238095,13.4888898 2.95238095,13.2196189 C2.95238095,12.9503481 3.16571429,12.7318094 3.42857143,12.7318094 L20.5714286,12.7318094 C20.8342857,12.7318094 21.047619,12.9503481 21.047619,13.2196189 Z M19.547619,17.5230745 C19.3561905,18.6986954 18.3628571,19.5611427 17.1990476,19.5611427 L6.80095238,19.5611427 C5.63714286,19.5611427 4.64380952,18.6986954 4.45238095,17.5230745 L3.99047619,14.6830475 L20.0095238,14.6830475 L19.547619,17.5230745 Z M15.3371429,4.40002283 C14.487619,4.57075616 13.747619,5.18051806 13.452381,6.08296567 C13.3695238,6.33760224 13.5047619,6.61370243 13.7542857,6.6995569 C14.0038095,6.78541138 14.2733333,6.64784909 14.3580952,6.38931005 C14.6257143,5.5668632 15.492381,5.12393216 16.2952381,5.39808111 C16.7514286,5.55515577 17.1104762,5.92296415 17.2619048,6.39126129 C17.3447619,6.64687347 17.6152381,6.78443576 17.8647619,6.6995569 C18.1142857,6.61467804 18.2495238,6.33857786 18.1666667,6.08394129 C17.92,5.32295844 17.3371429,4.72685521 16.5961905,4.47319426 C16.4952381,4.43807197 16.3914286,4.42246207 16.2895238,4.40197407 C16.3085714,3.61074703 16.9380952,2.97561904 17.7142857,2.97561904 C18.5028571,2.97561904 19.1428571,3.63123503 19.1428571,4.43904759 L19.1428571,11.7561904 L3.42857143,11.7561904 C2.64,11.7561904 2,12.4118064 2,13.2196189 C2,13.8791374 2.42857143,14.4293865 3.01333333,14.6128029 L3.51333333,17.683076 C3.70095238,18.8372333 4.4447619,19.7630958 5.43142857,20.2216368 L4.90761905,21.2938421 C4.79047619,21.53482 4.8847619,21.8284813 5.12,21.9484824 C5.3552381,22.0684836 5.64190476,21.9718973 5.75904762,21.7309194 L6.36190476,20.4967613 C6.50666667,20.5162737 6.65142857,20.5367617 6.80095238,20.5367617 L17.1990476,20.5367617 C17.3485714,20.5367617 17.4933333,20.5162737 17.6380952,20.4967613 L18.2409524,21.7309194 C18.3580952,21.9718973 18.6447619,22.0684836 18.88,21.9484824 C19.1152381,21.8284813 19.2095238,21.53482 19.092381,21.2938421 L18.5685714,20.2216368 C19.5552381,19.7630958 20.2990476,18.8372333 20.4866667,17.683076 L20.9866667,14.6128029 C21.5714286,14.4293865 22,13.8791374 22,13.2196189 C22,12.4118064 21.36,11.7561904 20.5714286,11.7561904 L20.0952381,11.7561904 L20.0952381,4.43904759 C20.0952381,3.0917177 19.0295238,2 17.7142857,2 C16.412381,2 15.3580952,3.0712297 15.3371429,4.40002283 Z" id="path-1"></path>
    </defs>
    <g id="Symbols" stroke="none" stroke-width="1" fill="none" fill-rule="evenodd">
        <g id="Preview-property" transform="translate(-18.000000, -270.000000)">
            <g id="Group" transform="translate(16.000000, 257.000000)">
                <g id="1" transform="translate(0.000000, 11.000000)">
                    <g id="Icons/24/Propiedades/ic_bathroom">
                        <mask id="mask-2" fill="white">
                            <use xlink:href="#path-1"></use>
                        </mask>
                        <g id="Fill-1"></g>
                        <g id="Colors/Darker" mask="url(#mask-2)" fill="#404041" fill-rule="evenodd">
                            <rect id="color" x="0" y="0" width="24" height="24"></rect>
                        </g>
                    </g>
                </g>
            </g>
        </g>
    </g>
</svg>