<?xml version="1.0" encoding="UTF-8"?>
<svg width="18px" height="18px" viewBox="0 0 18 18" version="1.1" xmlns="http://www.w3.org/2000/svg" xmlns:xlink="http://www.w3.org/1999/xlink">
    <!-- Generator: Sketch 49.2 (51160) - http://www.bohemiancoding.com/sketch -->
    <title>Icons/24/Propiedades/ic_bedroom</title>
    <desc>Created with Sketch.</desc>
    <defs>
        <path d="M20.0526316,15.5 L20.0526316,16 L3.94736842,16 L3.94736842,15.5 C3.94736842,14.119 5.00747368,13 6.31578947,13 L6.78947368,13 L17.2105263,13 L17.6842105,13 C18.9925263,13 20.0526316,14.119 20.0526316,15.5 Z M12,10.8 C11.7385263,10.8 11.5263158,11.023 11.5263158,11.3 L11.5263158,12 L7.73684211,12 L7.73684211,10.5 C7.73684211,10.224 7.94905263,10 8.21052632,10 L15.7894737,10 C16.0509474,10 16.2631579,10.224 16.2631579,10.5 L16.2631579,12 L12.4736842,12 L12.4736842,11.3 C12.4736842,11.023 12.2614737,10.8 12,10.8 Z M5.84210526,12 L5.84210526,7.5 C5.84210526,7.224 6.05431579,7 6.31578947,7 L7.96705263,7 L8.09115789,6.7 C8.76473684,5.073 10.2890526,4 12,4 C13.7109474,4 15.2352632,5.073 15.9088421,6.7 L16.0329474,7 L17.6842105,7 C17.9456842,7 18.1578947,7.224 18.1578947,7.5 L18.1578947,12 L17.6842105,12 L17.2105263,12 L17.2105263,10.5 C17.2105263,9.672 16.5738947,9 15.7894737,9 L8.21052632,9 C7.42610526,9 6.78947368,9.672 6.78947368,10.5 L6.78947368,12 L6.31578947,12 L5.84210526,12 Z M17.6842105,6 L16.6421053,6 C15.7629474,4.182 13.9837895,3 12,3 C10.0162105,3 8.23705263,4.182 7.35789474,6 L6.31578947,6 C5.53136842,6 4.89473684,6.672 4.89473684,7.5 L4.89473684,12.35 C3.77684211,12.913 3,14.106 3,15.5 L3,20.5 C3,20.776 3.21221053,21 3.47368421,21 C3.73515789,21 3.94736842,20.776 3.94736842,20.5 L3.94736842,17 L20.0526316,17 L20.0526316,20.5 C20.0526316,20.776 20.2648421,21 20.5263158,21 C20.7877895,21 21,20.776 21,20.5 L21,15.5 C21,14.106 20.2231579,12.913 19.1052632,12.35 L19.1052632,7.5 C19.1052632,6.672 18.4686316,6 17.6842105,6 Z" id="path-1"></path>
    </defs>
    <g id="Symbols" stroke="none" stroke-width="1" fill="none" fill-rule="evenodd">
        <g id="Preview-property" transform="translate(-80.000000, -271.000000)">
            <g id="Group" transform="translate(16.000000, 257.000000)">
                <g id="1-copy" transform="translate(61.000000, 11.000000)">
                    <g id="Icons/24/Propiedades/ic_bedroom">
                        <mask id="mask-2" fill="white">
                            <use xlink:href="#path-1"></use>
                        </mask>
                        <g id="Page-1"></g>
                        <g id="Colors/Darker" mask="url(#mask-2)" fill="#404041" fill-rule="evenodd">
                            <rect id="color" x="0" y="0" width="24" height="24"></rect>
                        </g>
                    </g>
                </g>
            </g>
        </g>
    </g>
</svg>