<?xml version="1.0" encoding="UTF-8"?>
<svg width="18px" height="15px" viewBox="0 0 18 15" version="1.1" xmlns="http://www.w3.org/2000/svg" xmlns:xlink="http://www.w3.org/1999/xlink">
    <!-- Generator: Sketch 49.2 (51160) - http://www.bohemiancoding.com/sketch -->
    <title>Icons/24/Propiedades/ic_garage</title>
    <desc>Created with Sketch.</desc>
    <defs>
        <path d="M3.9,16 L20.1,16 L20.1,13 C20.1,11.3431458 18.8911688,10 17.4,10 L6.6,10 C5.10883118,10 3.9,11.3431458 3.9,13 L3.9,16 Z M6.6,9 L17.4,9 C19.3882251,9 21,10.790861 21,13 L21,17 L3,17 L3,13 C3,10.790861 4.6117749,9 6.6,9 Z M17.2375856,9 L16.7629258,5.83560101 C16.6905976,5.35341304 16.3151265,5 15.8751712,5 L8.12482876,5 C7.68487352,5 7.30940242,5.35341304 7.23707423,5.83560101 L6.76241438,9 L17.2375856,9 Z M8.12482876,4 L15.8751712,4 C16.7550817,4 17.5060239,4.70682609 17.6506803,5.67120203 L18.3,10 L5.7,10 L6.3493197,5.67120203 C6.49397609,4.70682609 7.24491828,4 8.12482876,4 Z M3.9,17 L3.9,18 L6.6,18 L6.6,17 L3.9,17 Z M3,16 L7.5,16 L7.5,18 C7.5,18.5522847 7.09705627,19 6.6,19 L3.9,19 C3.40294373,19 3,18.5522847 3,18 L3,16 Z M17.4,17 L17.4,18 L20.1,18 L20.1,17 L17.4,17 Z M16.5,16 L21,16 L21,18 C21,18.5522847 20.5970563,19 20.1,19 L17.4,19 C16.9029437,19 16.5,18.5522847 16.5,18 L16.5,16 Z M6.6,12 C7.09705627,12 7.5,12.4029437 7.5,12.9 L7.5,13.1 C7.5,13.5970563 7.09705627,14 6.6,14 C6.10294373,14 5.7,13.5970563 5.7,13.1 L5.7,12.9 C5.7,12.4029437 6.10294373,12 6.6,12 Z M17.4,12 C17.8970563,12 18.3,12.4029437 18.3,12.9 L18.3,13.1 C18.3,13.5970563 17.8970563,14 17.4,14 C16.9029437,14 16.5,13.5970563 16.5,13.1 L16.5,12.9 C16.5,12.4029437 16.9029437,12 17.4,12 Z" id="path-1"></path>
    </defs>
    <g id="Symbols" stroke="none" stroke-width="1" fill="none" fill-rule="evenodd">
        <g id="Preview-property" transform="translate(-144.000000, -272.000000)">
            <g id="Group" transform="translate(16.000000, 257.000000)">
                <g id="1-copy-2" transform="translate(125.000000, 11.000000)">
                    <g id="Icons/24/Propiedades/ic_car">
                        <mask id="mask-2" fill="white">
                            <use xlink:href="#path-1"></use>
                        </mask>
                        <use id="Mask" fill="#000000" fill-rule="nonzero" xlink:href="#path-1"></use>
                        <g id="Colors/Darker" mask="url(#mask-2)" fill="#404041" fill-rule="evenodd">
                            <rect id="color" x="0" y="0" width="24" height="24"></rect>
                        </g>
                    </g>
                </g>
            </g>
        </g>
    </g>
</svg>