<svg id="svg" version="1.1" width="400" height="400" viewBox="0 0 400 400" xmlns="http://www.w3.org/2000/svg" xmlns:xlink="http://www.w3.org/1999/xlink" ><g id="svgg"><path id="path0" d="M117.600 92.659 C 117.050 92.762,116.060 93.091,115.400 93.390 C 114.740 93.689,113.531 94.057,112.714 94.209 C 111.897 94.360,111.020 94.735,110.765 95.042 C 110.510 95.349,110.089 95.600,109.829 95.600 C 109.568 95.600,108.797 96.005,108.115 96.500 C 107.433 96.995,106.479 97.670,105.995 98.000 C 105.511 98.330,103.649 100.233,101.857 102.229 C 96.894 107.758,96.066 108.763,95.813 109.560 C 95.684 109.964,95.224 110.616,94.790 111.009 C 94.355 111.402,94.000 111.972,94.000 112.275 C 94.000 112.577,93.741 112.924,93.424 113.046 C 93.108 113.167,92.736 113.779,92.599 114.406 C 92.461 115.032,92.102 115.750,91.800 116.000 C 91.498 116.250,91.138 116.970,91.000 117.600 C 90.862 118.230,90.490 118.959,90.174 119.221 C 89.858 119.483,89.600 119.998,89.600 120.364 C 89.600 120.731,89.260 121.697,88.845 122.511 C 88.430 123.325,87.965 124.662,87.811 125.482 C 87.657 126.302,87.277 127.465,86.966 128.066 C 86.655 128.668,86.400 129.783,86.400 130.544 C 86.400 131.306,86.042 133.070,85.605 134.464 C 84.547 137.841,84.395 155.772,85.403 158.292 C 85.735 159.122,86.168 160.970,86.366 162.400 C 86.563 163.830,87.004 165.720,87.345 166.600 C 87.686 167.480,87.973 168.567,87.982 169.015 C 87.992 169.464,88.360 170.537,88.800 171.400 C 89.240 172.263,89.600 173.253,89.600 173.600 C 89.600 173.947,89.960 174.937,90.400 175.800 C 90.840 176.663,91.200 177.669,91.200 178.036 C 91.200 178.402,91.451 178.910,91.758 179.165 C 92.065 179.420,92.430 180.234,92.569 180.974 C 92.708 181.714,93.075 182.530,93.385 182.787 C 93.695 183.045,94.062 183.770,94.200 184.400 C 94.338 185.030,94.698 185.750,95.000 186.000 C 95.302 186.250,95.664 186.981,95.805 187.623 C 95.946 188.265,96.230 188.895,96.437 189.023 C 96.643 189.150,97.086 189.827,97.420 190.527 C 98.366 192.506,99.209 194.028,100.563 196.200 C 101.249 197.300,101.987 198.497,102.205 198.859 C 102.422 199.222,103.185 200.356,103.900 201.379 C 104.615 202.403,105.200 203.411,105.200 203.620 C 105.200 203.829,105.362 204.000,105.560 204.000 C 105.759 204.000,106.344 204.666,106.860 205.481 C 107.377 206.296,108.113 207.421,108.496 207.981 C 108.878 208.541,109.402 209.405,109.660 209.900 C 109.918 210.395,110.249 210.800,110.397 210.800 C 110.544 210.800,111.270 211.745,112.010 212.900 C 112.749 214.055,113.589 215.144,113.877 215.320 C 114.165 215.496,114.400 215.892,114.400 216.200 C 114.400 216.508,114.626 216.904,114.901 217.080 C 115.177 217.256,115.936 218.210,116.587 219.200 C 117.239 220.190,118.049 221.298,118.386 221.663 C 118.724 222.028,119.318 222.748,119.706 223.263 C 120.932 224.889,124.175 228.968,124.800 229.669 C 125.638 230.610,126.295 231.392,128.679 234.289 C 129.823 235.679,130.993 237.064,131.279 237.367 C 131.566 237.670,133.060 239.321,134.600 241.037 C 137.809 244.612,149.945 256.729,153.591 260.000 C 154.940 261.210,156.330 262.464,156.679 262.786 C 157.029 263.108,158.864 264.610,160.757 266.123 C 162.651 267.636,164.344 269.127,164.520 269.437 C 164.696 269.747,165.041 270.000,165.286 270.000 C 165.532 270.000,166.018 270.270,166.366 270.601 C 167.865 272.022,171.582 274.800,171.986 274.800 C 172.227 274.800,172.529 275.070,172.655 275.400 C 172.782 275.730,173.121 276.000,173.409 276.000 C 173.896 276.000,175.025 276.822,176.842 278.500 C 177.259 278.885,177.859 279.200,178.176 279.200 C 178.493 279.200,178.869 279.387,179.010 279.616 C 179.285 280.061,181.950 281.855,183.600 282.707 C 185.125 283.493,186.254 284.181,186.896 284.714 C 187.616 285.312,192.109 287.807,194.000 288.659 C 194.770 289.006,195.490 289.424,195.600 289.587 C 195.710 289.750,196.475 290.104,197.300 290.373 C 198.125 290.642,198.800 291.008,198.800 291.187 C 198.800 291.365,199.439 291.631,200.221 291.778 C 201.003 291.924,201.742 292.304,201.864 292.622 C 201.986 292.940,202.370 293.200,202.717 293.200 C 203.064 293.200,204.124 293.560,205.074 294.000 C 209.177 295.902,210.272 296.345,211.472 296.591 C 212.172 296.734,212.948 297.096,213.195 297.394 C 213.443 297.693,214.345 298.056,215.200 298.200 C 216.055 298.344,216.966 298.718,217.226 299.031 C 217.486 299.344,218.084 299.600,218.555 299.600 C 219.026 299.600,220.084 299.960,220.904 300.400 C 221.725 300.840,222.715 301.200,223.104 301.200 C 223.494 301.200,224.484 301.560,225.304 302.000 C 226.125 302.440,227.113 302.806,227.499 302.814 C 227.884 302.821,228.920 303.175,229.800 303.600 C 230.680 304.025,231.806 304.379,232.301 304.386 C 232.797 304.394,233.875 304.760,234.696 305.200 C 235.516 305.640,236.641 306.006,237.194 306.014 C 237.747 306.021,238.920 306.375,239.800 306.800 C 240.680 307.225,241.940 307.580,242.600 307.589 C 243.260 307.598,244.289 307.860,244.887 308.172 C 245.485 308.484,247.015 308.865,248.287 309.018 C 249.559 309.171,251.199 309.542,251.931 309.841 C 255.721 311.391,275.658 311.385,278.128 309.834 C 278.608 309.533,279.885 309.162,280.967 309.009 C 282.048 308.856,283.308 308.497,283.767 308.210 C 284.225 307.924,285.275 307.571,286.100 307.427 C 286.925 307.282,287.600 307.004,287.600 306.809 C 287.600 306.614,288.005 306.340,288.500 306.201 C 289.289 305.979,294.613 303.370,297.935 301.578 C 298.568 301.237,299.787 300.410,300.643 299.741 C 301.500 299.072,302.496 298.362,302.857 298.162 C 303.838 297.622,306.747 295.158,307.946 293.853 C 308.526 293.222,309.630 292.048,310.400 291.243 C 311.170 290.437,312.055 289.289,312.368 288.689 C 312.680 288.090,313.085 287.600,313.268 287.600 C 313.450 287.600,313.600 287.354,313.600 287.054 C 313.600 286.754,313.960 286.050,314.400 285.491 C 314.840 284.931,315.200 284.230,315.200 283.931 C 315.200 283.632,315.560 282.716,316.000 281.896 C 316.440 281.075,316.800 279.941,316.800 279.376 C 316.800 278.811,317.145 277.505,317.567 276.474 C 317.989 275.443,318.439 273.610,318.569 272.400 C 318.698 271.190,319.065 269.480,319.384 268.600 C 319.784 267.498,319.970 265.253,319.982 261.389 L 320.000 255.778 318.824 254.589 C 316.695 252.436,316.140 252.000,315.528 252.000 C 315.195 252.000,314.520 251.651,314.028 251.225 C 313.537 250.798,312.609 250.334,311.967 250.193 C 311.325 250.052,310.800 249.799,310.800 249.632 C 310.800 249.464,310.080 249.111,309.200 248.847 C 308.320 248.584,307.600 248.224,307.600 248.047 C 307.600 247.871,306.880 247.511,306.000 247.247 C 305.120 246.984,304.400 246.618,304.400 246.434 C 304.400 246.250,303.882 245.996,303.248 245.870 C 302.615 245.743,301.845 245.388,301.537 245.080 C 301.230 244.772,300.308 244.300,299.489 244.029 C 298.670 243.759,298.000 243.372,298.000 243.169 C 298.000 242.966,297.727 242.800,297.393 242.800 C 296.845 242.800,293.520 241.299,292.000 240.366 C 291.670 240.164,290.950 239.819,290.400 239.599 C 289.850 239.380,289.130 239.020,288.800 238.799 C 288.470 238.579,287.750 238.217,287.200 237.996 C 286.650 237.775,285.722 237.326,285.138 236.997 C 284.554 236.669,283.834 236.396,283.538 236.391 C 283.242 236.386,282.550 236.030,282.000 235.600 C 281.450 235.170,280.709 234.814,280.354 234.809 C 279.999 234.804,279.250 234.440,278.691 234.000 C 278.131 233.560,277.325 233.200,276.898 233.200 C 276.471 233.200,275.707 232.840,275.200 232.400 C 274.693 231.960,273.914 231.600,273.470 231.600 C 273.026 231.600,272.379 231.357,272.031 231.061 C 269.944 229.278,261.129 228.039,260.022 229.373 C 259.736 229.718,259.280 230.000,259.009 230.000 C 258.374 230.000,254.821 233.754,253.508 235.812 C 252.951 236.685,251.936 238.120,251.253 239.000 C 250.569 239.880,249.872 240.780,249.705 241.000 C 249.537 241.220,248.866 242.210,248.213 243.200 C 246.958 245.102,246.538 245.649,245.219 247.100 C 244.768 247.595,244.400 248.093,244.400 248.206 C 244.400 249.286,237.083 256.800,236.031 256.800 C 235.658 256.800,235.004 257.064,234.576 257.387 C 233.535 258.175,227.307 258.227,226.189 257.457 C 225.755 257.158,224.743 256.793,223.940 256.646 C 223.137 256.499,222.260 256.114,221.991 255.789 C 221.722 255.465,221.229 255.200,220.895 255.200 C 220.561 255.200,219.458 254.815,218.444 254.344 C 215.007 252.747,206.209 248.309,204.600 247.360 C 203.720 246.841,202.730 246.295,202.400 246.147 C 201.081 245.555,198.000 243.445,198.000 243.133 C 198.000 242.950,197.800 242.800,197.556 242.800 C 196.938 242.800,193.200 240.340,193.200 239.933 C 193.200 239.750,192.973 239.600,192.695 239.600 C 191.937 239.600,181.736 231.665,178.682 228.700 C 177.832 227.875,177.016 227.196,176.868 227.192 C 176.540 227.182,166.800 217.412,166.800 217.093 C 166.800 216.968,166.069 216.104,165.175 215.174 C 164.281 214.244,161.536 210.940,159.075 207.833 C 154.565 202.139,153.592 200.839,151.787 198.099 C 151.244 197.274,150.530 196.248,150.200 195.819 C 149.870 195.389,149.600 194.804,149.600 194.519 C 149.600 194.233,149.411 194.000,149.180 194.000 C 148.948 194.000,148.496 193.370,148.174 192.600 C 147.852 191.830,147.429 191.200,147.234 191.200 C 147.038 191.200,146.675 190.705,146.426 190.100 C 146.178 189.495,145.427 188.030,144.757 186.844 C 142.792 183.363,143.662 176.000,146.038 176.000 C 146.237 176.000,146.400 175.739,146.400 175.420 C 146.400 175.101,146.636 174.696,146.924 174.520 C 147.212 174.344,147.710 173.816,148.030 173.346 C 148.553 172.577,153.592 167.004,157.200 163.204 C 157.970 162.393,158.780 161.458,159.000 161.125 C 159.220 160.792,159.940 159.728,160.599 158.760 C 161.711 157.129,162.947 154.262,163.476 152.087 C 163.598 151.584,163.420 150.414,163.080 149.487 C 162.739 148.559,162.346 147.227,162.205 146.528 C 162.064 145.828,161.709 145.056,161.416 144.813 C 161.123 144.570,160.770 143.766,160.631 143.026 C 160.492 142.286,160.132 141.476,159.831 141.226 C 159.530 140.976,159.162 140.122,159.013 139.328 C 158.864 138.534,158.485 137.628,158.171 137.314 C 157.857 137.000,157.600 136.372,157.600 135.919 C 157.600 135.465,157.259 134.533,156.843 133.847 C 156.427 133.161,155.965 132.027,155.817 131.328 C 155.670 130.628,155.290 129.841,154.974 129.579 C 154.658 129.317,154.399 128.719,154.397 128.251 C 154.396 127.783,154.037 126.860,153.600 126.200 C 153.163 125.540,152.804 124.676,152.803 124.279 C 152.801 123.883,152.457 122.893,152.037 122.079 C 150.736 119.554,149.600 116.933,149.600 116.455 C 149.600 116.203,149.240 115.325,148.800 114.504 C 148.360 113.684,148.000 112.716,148.000 112.355 C 148.000 111.994,147.742 111.483,147.426 111.221 C 147.110 110.959,146.732 110.172,146.586 109.472 C 146.441 108.773,146.082 107.821,145.790 107.358 C 145.497 106.896,145.135 105.861,144.985 105.058 C 144.834 104.256,144.550 103.600,144.354 103.600 C 144.158 103.600,143.780 102.790,143.516 101.800 C 143.251 100.810,142.911 100.000,142.760 100.000 C 142.610 100.000,142.209 99.305,141.869 98.455 C 141.305 97.047,140.025 95.556,137.527 93.400 C 136.620 92.616,120.942 92.034,117.600 92.659 " stroke="none" fill="#fafbfa" fill-rule="evenodd"></path><path id="path1" d="M174.400 0.400 C 174.400 0.644,172.533 0.800,169.600 0.800 C 165.333 0.800,164.711 0.889,164.000 1.600 C 163.333 2.267,162.667 2.400,160.000 2.400 C 157.333 2.400,156.667 2.533,156.000 3.200 C 155.355 3.845,154.667 4.000,152.447 4.000 C 150.030 4.000,149.668 4.098,149.484 4.800 C 149.302 5.498,148.938 5.600,146.641 5.600 C 144.440 5.600,143.925 5.732,143.507 6.400 C 143.109 7.038,142.574 7.200,140.866 7.200 C 139.062 7.200,138.692 7.326,138.516 8.000 C 138.339 8.677,137.970 8.800,136.116 8.800 C 134.262 8.800,133.893 8.923,133.716 9.600 C 133.539 10.275,133.170 10.400,131.353 10.400 C 129.467 10.400,129.200 10.499,129.200 11.200 C 129.200 11.862,128.933 12.000,127.649 12.000 C 126.758 12.000,125.886 12.255,125.600 12.600 C 125.326 12.930,124.629 13.202,124.051 13.205 C 122.384 13.214,121.200 13.646,121.200 14.247 C 121.200 14.615,120.720 14.800,119.763 14.800 C 118.662 14.800,118.276 14.987,118.116 15.600 C 117.957 16.206,117.570 16.400,116.516 16.400 C 115.462 16.400,115.075 16.594,114.916 17.200 C 114.763 17.786,114.370 18.000,113.450 18.000 C 112.626 18.000,112.020 18.276,111.693 18.800 C 111.384 19.295,110.760 19.600,110.059 19.600 C 109.432 19.600,108.600 19.958,108.200 20.400 C 107.802 20.840,107.054 21.200,106.538 21.200 C 105.867 21.200,105.600 21.427,105.600 22.000 C 105.600 22.667,105.333 22.800,104.000 22.800 C 102.667 22.800,102.400 22.933,102.400 23.600 C 102.400 24.252,102.133 24.400,100.963 24.400 C 99.862 24.400,99.476 24.587,99.316 25.200 C 99.166 25.774,98.770 26.000,97.916 26.000 C 97.062 26.000,96.666 26.226,96.516 26.800 C 96.400 27.243,95.970 27.600,95.553 27.600 C 95.067 27.600,94.800 27.883,94.800 28.400 C 94.800 29.067,94.533 29.200,93.200 29.200 C 92.044 29.200,91.600 29.367,91.600 29.800 C 91.600 30.133,91.244 30.400,90.800 30.400 C 90.360 30.400,90.000 30.567,90.000 30.771 C 90.000 30.975,89.280 31.460,88.400 31.848 C 87.520 32.236,86.800 32.789,86.800 33.077 C 86.800 33.365,86.483 33.600,86.096 33.600 C 85.709 33.600,85.168 33.960,84.893 34.400 C 84.616 34.843,83.960 35.200,83.424 35.200 C 82.805 35.200,82.362 35.490,82.200 36.000 C 82.060 36.440,81.671 36.800,81.336 36.800 C 81.000 36.800,80.631 37.160,80.516 37.600 C 80.400 38.043,79.970 38.400,79.553 38.400 C 79.139 38.400,78.440 38.760,78.000 39.200 C 77.560 39.640,76.930 40.000,76.600 40.000 C 76.267 40.000,76.000 40.356,76.000 40.800 C 76.000 41.333,75.733 41.600,75.200 41.600 C 74.667 41.600,74.400 41.867,74.400 42.400 C 74.400 42.933,74.133 43.200,73.600 43.200 C 73.067 43.200,72.800 43.467,72.800 44.000 C 72.800 44.600,72.533 44.800,71.734 44.800 C 71.147 44.800,70.382 45.058,70.034 45.374 C 69.685 45.689,68.643 46.657,67.719 47.524 C 66.794 48.391,65.759 49.207,65.419 49.337 C 65.078 49.468,64.800 49.830,64.800 50.141 C 64.800 50.452,64.440 50.801,64.000 50.916 C 63.560 51.031,63.200 51.412,63.200 51.763 C 63.200 52.113,62.930 52.400,62.600 52.400 C 62.267 52.400,62.000 52.756,62.000 53.200 C 62.000 53.733,61.733 54.000,61.200 54.000 C 60.667 54.000,60.400 54.267,60.400 54.800 C 60.400 55.333,60.133 55.600,59.600 55.600 C 59.067 55.600,58.800 55.867,58.800 56.400 C 58.800 56.933,58.533 57.200,58.000 57.200 C 57.467 57.200,57.200 57.467,57.200 58.000 C 57.200 58.533,56.933 58.800,56.400 58.800 C 55.867 58.800,55.600 59.067,55.600 59.600 C 55.600 60.133,55.333 60.400,54.800 60.400 C 54.267 60.400,54.000 60.667,54.000 61.200 C 54.000 61.733,53.733 62.000,53.200 62.000 C 52.760 62.000,52.400 62.249,52.400 62.553 C 52.400 62.858,52.040 63.201,51.600 63.316 C 51.160 63.431,50.800 63.812,50.800 64.163 C 50.800 64.513,50.524 64.800,50.187 64.800 C 49.851 64.800,49.468 65.078,49.337 65.419 C 49.207 65.759,48.391 66.794,47.524 67.719 C 46.657 68.643,45.689 69.685,45.374 70.034 C 45.058 70.382,44.800 71.147,44.800 71.734 C 44.800 72.533,44.600 72.800,44.000 72.800 C 43.467 72.800,43.200 73.067,43.200 73.600 C 43.200 74.133,42.933 74.400,42.400 74.400 C 41.867 74.400,41.600 74.667,41.600 75.200 C 41.600 75.733,41.333 76.000,40.800 76.000 C 40.356 76.000,40.000 76.267,40.000 76.600 C 40.000 76.930,39.640 77.560,39.200 78.000 C 38.760 78.440,38.400 79.139,38.400 79.553 C 38.400 79.970,38.043 80.400,37.600 80.516 C 37.160 80.631,36.800 81.000,36.800 81.336 C 36.800 81.671,36.440 82.060,36.000 82.200 C 35.490 82.362,35.200 82.805,35.200 83.424 C 35.200 83.960,34.843 84.616,34.400 84.893 C 33.960 85.168,33.600 85.709,33.600 86.096 C 33.600 86.483,33.365 86.800,33.077 86.800 C 32.789 86.800,32.236 87.520,31.848 88.400 C 31.460 89.280,30.975 90.000,30.771 90.000 C 30.567 90.000,30.400 90.360,30.400 90.800 C 30.400 91.244,30.133 91.600,29.800 91.600 C 29.367 91.600,29.200 92.044,29.200 93.200 C 29.200 94.533,29.067 94.800,28.400 94.800 C 27.883 94.800,27.600 95.067,27.600 95.553 C 27.600 95.970,27.243 96.400,26.800 96.516 C 26.226 96.666,26.000 97.062,26.000 97.916 C 26.000 98.770,25.774 99.166,25.200 99.316 C 24.587 99.476,24.400 99.862,24.400 100.963 C 24.400 102.133,24.252 102.400,23.600 102.400 C 22.933 102.400,22.800 102.667,22.800 104.000 C 22.800 105.333,22.667 105.600,22.000 105.600 C 21.378 105.600,21.200 105.867,21.200 106.797 C 21.200 107.560,20.910 108.174,20.400 108.493 C 19.915 108.796,19.600 109.426,19.600 110.093 C 19.600 110.760,19.285 111.390,18.800 111.693 C 18.276 112.020,18.000 112.626,18.000 113.450 C 18.000 114.370,17.786 114.763,17.200 114.916 C 16.594 115.075,16.400 115.462,16.400 116.516 C 16.400 117.570,16.206 117.957,15.600 118.116 C 14.987 118.276,14.800 118.662,14.800 119.763 C 14.800 120.720,14.615 121.200,14.247 121.200 C 13.595 121.200,13.213 122.411,13.205 124.500 C 13.202 125.564,13.026 126.000,12.600 126.000 C 12.167 126.000,12.000 126.444,12.000 127.600 C 12.000 128.933,11.867 129.200,11.200 129.200 C 10.499 129.200,10.400 129.467,10.400 131.353 C 10.400 133.170,10.275 133.539,9.600 133.716 C 8.923 133.893,8.800 134.262,8.800 136.116 C 8.800 137.970,8.677 138.339,8.000 138.516 C 7.326 138.692,7.200 139.062,7.200 140.866 C 7.200 142.574,7.038 143.109,6.400 143.507 C 5.732 143.925,5.600 144.440,5.600 146.641 C 5.600 148.938,5.498 149.302,4.800 149.484 C 4.098 149.668,4.000 150.030,4.000 152.447 C 4.000 154.667,3.845 155.355,3.200 156.000 C 2.525 156.675,2.400 157.333,2.400 160.200 C 2.400 162.828,2.274 163.600,1.847 163.600 C 1.027 163.600,0.812 164.905,0.805 169.900 C 0.802 172.630,0.643 174.400,0.400 174.400 C 0.138 174.400,0.000 183.200,0.000 200.000 C 0.000 216.800,0.138 225.600,0.400 225.600 C 0.645 225.600,0.800 227.535,0.800 230.604 C 0.800 235.113,0.879 235.676,1.600 236.293 C 2.271 236.868,2.400 237.473,2.400 240.056 C 2.400 243.482,2.620 244.400,3.443 244.400 C 3.870 244.400,4.000 245.108,4.000 247.437 C 4.000 250.138,4.089 250.498,4.800 250.684 C 5.484 250.863,5.600 251.230,5.600 253.214 C 5.600 255.898,5.862 256.800,6.643 256.800 C 7.057 256.800,7.200 257.415,7.200 259.200 C 7.200 261.333,7.289 261.600,8.000 261.600 C 8.711 261.600,8.800 261.867,8.800 264.000 C 8.800 266.133,8.889 266.400,9.600 266.400 C 10.301 266.400,10.400 266.667,10.400 268.553 C 10.400 270.370,10.525 270.739,11.200 270.916 C 11.836 271.082,12.000 271.462,12.000 272.763 C 12.000 273.951,12.164 274.400,12.600 274.400 C 13.009 274.400,13.202 274.814,13.205 275.700 C 13.213 277.600,13.616 278.800,14.247 278.800 C 14.615 278.800,14.800 279.280,14.800 280.237 C 14.800 281.338,14.987 281.724,15.600 281.884 C 16.206 282.043,16.400 282.430,16.400 283.484 C 16.400 284.538,16.594 284.925,17.200 285.084 C 17.801 285.241,18.000 285.630,18.000 286.643 C 18.000 287.560,18.257 288.154,18.800 288.493 C 19.282 288.794,19.600 289.426,19.600 290.082 C 19.600 290.762,19.901 291.333,20.400 291.600 C 20.924 291.880,21.200 292.438,21.200 293.214 C 21.200 294.133,21.380 294.400,22.000 294.400 C 22.667 294.400,22.800 294.667,22.800 296.000 C 22.800 297.333,22.933 297.600,23.600 297.600 C 24.252 297.600,24.400 297.867,24.400 299.037 C 24.400 300.138,24.587 300.524,25.200 300.684 C 25.797 300.840,26.000 301.230,26.000 302.220 C 26.000 303.195,26.212 303.613,26.800 303.800 C 27.240 303.940,27.600 304.402,27.600 304.827 C 27.600 305.333,27.876 305.600,28.400 305.600 C 29.048 305.600,29.200 305.867,29.200 307.000 C 29.200 307.978,29.381 308.400,29.800 308.400 C 30.130 308.400,30.400 308.717,30.400 309.104 C 30.400 309.491,30.760 310.032,31.200 310.307 C 31.665 310.597,32.000 311.240,32.000 311.841 C 32.000 312.538,32.260 312.943,32.800 313.084 C 33.243 313.200,33.600 313.630,33.600 314.047 C 33.600 314.519,33.882 314.800,34.358 314.800 C 35.759 314.800,35.767 322.558,34.366 322.925 C 33.729 323.091,33.600 323.494,33.600 325.316 C 33.600 327.170,33.477 327.539,32.800 327.716 C 32.139 327.889,32.000 328.262,32.000 329.866 C 32.000 331.374,31.821 331.919,31.200 332.307 C 30.574 332.698,30.400 333.240,30.400 334.803 C 30.400 336.311,30.253 336.800,29.800 336.800 C 29.333 336.800,29.200 337.333,29.200 339.200 C 29.200 341.333,29.111 341.600,28.400 341.600 C 27.699 341.600,27.600 341.867,27.600 343.753 C 27.600 345.570,27.475 345.939,26.800 346.116 C 26.120 346.294,26.000 346.662,26.000 348.563 C 26.000 350.533,25.905 350.800,25.200 350.800 C 24.489 350.800,24.400 351.067,24.400 353.200 C 24.400 355.333,24.311 355.600,23.600 355.600 C 22.889 355.600,22.800 355.867,22.800 358.000 C 22.800 360.133,22.711 360.400,22.000 360.400 C 21.299 360.400,21.200 360.667,21.200 362.553 C 21.200 364.370,21.075 364.739,20.400 364.916 C 19.723 365.093,19.600 365.462,19.600 367.316 C 19.600 369.170,19.477 369.539,18.800 369.716 C 18.123 369.893,18.000 370.262,18.000 372.116 C 18.000 373.970,17.877 374.339,17.200 374.516 C 16.520 374.694,16.400 375.062,16.400 376.963 C 16.400 378.933,16.305 379.200,15.600 379.200 C 14.899 379.200,14.800 379.467,14.800 381.353 C 14.800 383.170,14.675 383.539,14.000 383.716 C 13.320 383.894,13.200 384.262,13.200 386.163 C 13.200 387.885,13.062 388.400,12.600 388.400 C 12.139 388.400,12.000 388.911,12.000 390.600 L 12.000 392.800 14.157 392.800 C 15.706 392.800,16.379 392.631,16.545 392.200 C 16.706 391.780,17.362 391.600,18.734 391.600 C 20.032 391.600,21.014 391.350,21.646 390.858 C 22.171 390.450,23.489 390.018,24.576 389.899 C 25.662 389.779,26.742 389.421,26.976 389.103 C 27.209 388.785,28.289 388.425,29.376 388.303 C 30.510 388.176,31.551 387.809,31.820 387.441 C 32.146 386.994,32.923 386.800,34.382 386.800 C 36.138 386.800,36.509 386.671,36.684 386.000 C 36.860 385.327,37.230 385.200,39.020 385.200 C 40.795 385.200,41.188 385.068,41.400 384.400 C 41.613 383.729,42.005 383.600,43.827 383.600 C 45.733 383.600,46.000 383.502,46.000 382.800 C 46.000 382.089,46.267 382.000,48.400 382.000 C 50.533 382.000,50.800 381.911,50.800 381.200 C 50.800 380.489,51.067 380.400,53.197 380.400 C 55.160 380.400,55.684 380.255,56.093 379.600 C 56.489 378.965,57.026 378.800,58.693 378.800 C 60.360 378.800,60.896 378.635,61.293 378.000 C 61.691 377.362,62.226 377.200,63.934 377.200 C 65.738 377.200,66.108 377.074,66.284 376.400 C 66.461 375.725,66.830 375.600,68.647 375.600 C 70.294 375.600,70.800 375.459,70.800 375.000 C 70.800 374.557,71.263 374.400,72.567 374.400 C 74.714 374.400,75.600 374.096,75.600 373.357 C 75.600 372.965,76.123 372.800,77.367 372.800 C 79.514 372.800,80.400 372.496,80.400 371.757 C 80.400 371.365,80.923 371.200,82.167 371.200 C 84.286 371.200,85.200 370.896,85.200 370.193 C 85.200 369.840,85.945 369.627,87.500 369.536 C 90.495 369.359,91.600 369.534,91.600 370.185 C 91.600 370.804,92.470 371.200,93.833 371.200 C 94.533 371.200,94.800 371.421,94.800 372.000 C 94.800 372.444,95.067 372.800,95.400 372.800 C 95.730 372.800,96.360 373.160,96.800 373.600 C 97.240 374.040,97.941 374.400,98.357 374.400 C 98.774 374.400,99.218 374.670,99.345 375.000 C 99.489 375.377,100.101 375.600,100.987 375.600 C 102.133 375.600,102.400 375.751,102.400 376.400 C 102.400 377.067,102.667 377.200,104.000 377.200 C 105.333 377.200,105.600 377.333,105.600 378.000 C 105.600 378.622,105.867 378.800,106.797 378.800 C 107.560 378.800,108.174 379.090,108.493 379.600 C 108.779 380.059,109.426 380.400,110.008 380.400 C 110.566 380.400,111.283 380.760,111.600 381.200 C 111.967 381.710,112.635 382.000,113.442 382.000 C 114.370 382.000,114.762 382.213,114.916 382.800 C 115.075 383.406,115.462 383.600,116.516 383.600 C 117.570 383.600,117.957 383.794,118.116 384.400 C 118.276 385.013,118.662 385.200,119.763 385.200 C 120.725 385.200,121.200 385.384,121.200 385.757 C 121.200 386.496,122.086 386.800,124.233 386.800 C 125.733 386.800,126.000 386.921,126.000 387.600 C 126.000 388.267,126.267 388.400,127.600 388.400 C 128.696 388.400,129.200 388.574,129.200 388.953 C 129.200 389.584,130.400 389.987,132.300 389.995 C 133.142 389.998,133.600 390.196,133.600 390.557 C 133.600 391.296,134.486 391.600,136.633 391.600 C 137.937 391.600,138.400 391.757,138.400 392.200 C 138.400 392.665,138.928 392.800,140.753 392.800 C 142.770 392.800,143.137 392.914,143.316 393.600 C 143.501 394.306,143.862 394.400,146.400 394.400 C 148.938 394.400,149.299 394.494,149.484 395.200 C 149.669 395.906,150.030 396.000,152.550 396.000 C 154.974 396.000,155.483 396.121,155.907 396.800 C 156.347 397.504,156.840 397.600,160.003 397.600 C 162.811 397.600,163.600 397.722,163.600 398.157 C 163.600 399.037,164.543 399.200,169.633 399.200 C 172.544 399.200,174.400 399.356,174.400 399.600 C 174.400 399.863,183.200 400.000,200.000 400.000 C 216.800 400.000,225.600 399.863,225.600 399.600 C 225.600 399.354,227.595 399.200,230.786 399.200 C 235.562 399.200,236.006 399.137,236.400 398.400 C 236.780 397.690,237.238 397.600,240.452 397.600 C 243.738 397.600,244.094 397.526,244.284 396.800 C 244.470 396.090,244.830 396.000,247.484 396.000 C 250.138 396.000,250.498 395.910,250.684 395.200 C 250.868 394.496,251.230 394.400,253.684 394.400 C 256.138 394.400,256.500 394.304,256.684 393.600 C 256.863 392.914,257.230 392.800,259.247 392.800 C 261.072 392.800,261.600 392.665,261.600 392.200 C 261.600 391.757,262.063 391.600,263.367 391.600 C 265.514 391.600,266.400 391.296,266.400 390.557 C 266.400 390.196,266.858 389.998,267.700 389.995 C 269.600 389.987,270.800 389.584,270.800 388.953 C 270.800 388.572,271.310 388.400,272.437 388.400 C 273.738 388.400,274.118 388.236,274.284 387.600 C 274.458 386.935,274.830 386.800,276.484 386.800 C 278.138 386.800,278.510 386.665,278.684 386.000 C 278.848 385.373,279.230 385.200,280.447 385.200 C 281.733 385.200,282.000 385.063,282.000 384.400 C 282.000 383.733,282.267 383.600,283.600 383.600 C 284.933 383.600,285.200 383.467,285.200 382.800 C 285.200 382.142,285.467 382.000,286.704 382.000 C 287.774 382.000,288.351 381.770,288.707 381.200 C 289.010 380.715,289.640 380.400,290.307 380.400 C 290.974 380.400,291.604 380.085,291.907 379.600 C 292.182 379.160,292.834 378.800,293.357 378.800 C 293.970 378.800,294.381 378.517,294.516 378.000 C 294.676 377.387,295.062 377.200,296.163 377.200 C 297.333 377.200,297.600 377.052,297.600 376.400 C 297.600 375.733,297.867 375.600,299.200 375.600 C 300.299 375.600,300.800 375.426,300.800 375.045 C 300.800 374.726,301.398 374.377,302.200 374.226 C 302.970 374.082,303.600 373.787,303.600 373.572 C 303.600 373.356,304.050 373.009,304.600 372.800 C 305.150 372.591,305.600 372.145,305.600 371.810 C 305.600 371.395,305.995 371.200,306.837 371.200 C 307.738 371.200,308.132 370.983,308.284 370.400 C 308.399 369.960,308.804 369.600,309.185 369.600 C 309.565 369.600,310.202 369.240,310.600 368.800 C 310.998 368.360,311.673 368.000,312.099 368.000 C 312.538 368.000,312.966 367.653,313.084 367.200 C 313.199 366.760,313.589 366.400,313.950 366.400 C 314.312 366.400,314.832 366.040,315.107 365.600 C 315.397 365.135,316.040 364.800,316.641 364.800 C 317.338 364.800,317.743 364.540,317.884 364.000 C 318.000 363.557,318.430 363.200,318.847 363.200 C 319.333 363.200,319.600 362.917,319.600 362.400 C 319.600 361.814,319.867 361.600,320.597 361.600 C 321.160 361.600,321.810 361.252,322.093 360.800 C 322.368 360.360,322.897 360.000,323.269 360.000 C 323.642 360.000,324.060 359.640,324.200 359.200 C 324.340 358.760,324.712 358.400,325.027 358.400 C 325.342 358.400,325.600 358.130,325.600 357.800 C 325.600 357.467,325.956 357.200,326.400 357.200 C 326.933 357.200,327.200 356.933,327.200 356.400 C 327.200 355.886,327.467 355.600,327.946 355.600 C 328.356 355.600,329.121 355.271,329.646 354.868 C 330.171 354.466,330.915 354.021,331.300 353.881 C 331.685 353.740,332.000 353.370,332.000 353.059 C 332.000 352.748,332.360 352.399,332.800 352.284 C 333.240 352.169,333.600 351.809,333.600 351.484 C 333.600 351.159,333.960 350.799,334.400 350.684 C 334.840 350.569,335.200 350.188,335.200 349.837 C 335.200 349.467,335.535 349.200,336.000 349.200 C 336.533 349.200,336.800 348.933,336.800 348.400 C 336.800 347.867,337.067 347.600,337.600 347.600 C 338.133 347.600,338.400 347.333,338.400 346.800 C 338.400 346.267,338.667 346.000,339.200 346.000 C 339.733 346.000,340.000 345.733,340.000 345.200 C 340.000 344.667,340.267 344.400,340.800 344.400 C 341.333 344.400,341.600 344.133,341.600 343.600 C 341.600 343.156,341.867 342.800,342.200 342.800 C 342.530 342.800,342.800 342.530,342.800 342.200 C 342.800 341.867,343.156 341.600,343.600 341.600 C 344.133 341.600,344.400 341.333,344.400 340.800 C 344.400 340.267,344.667 340.000,345.200 340.000 C 345.733 340.000,346.000 339.733,346.000 339.200 C 346.000 338.667,346.267 338.400,346.800 338.400 C 347.333 338.400,347.600 338.133,347.600 337.600 C 347.600 337.067,347.867 336.800,348.400 336.800 C 348.917 336.800,349.200 336.533,349.200 336.047 C 349.200 335.630,349.557 335.200,350.000 335.084 C 350.440 334.969,350.800 334.609,350.800 334.284 C 350.800 333.959,351.160 333.599,351.600 333.484 C 352.040 333.369,352.400 332.988,352.400 332.637 C 352.400 332.287,352.676 332.000,353.013 332.000 C 353.349 332.000,353.740 331.685,353.881 331.300 C 354.021 330.915,354.466 330.171,354.868 329.646 C 355.271 329.121,355.600 328.356,355.600 327.946 C 355.600 327.467,355.886 327.200,356.400 327.200 C 356.933 327.200,357.200 326.933,357.200 326.400 C 357.200 325.956,357.467 325.600,357.800 325.600 C 358.130 325.600,358.400 325.342,358.400 325.027 C 358.400 324.712,358.760 324.340,359.200 324.200 C 359.640 324.060,360.000 323.642,360.000 323.269 C 360.000 322.897,360.360 322.368,360.800 322.093 C 361.252 321.810,361.600 321.160,361.600 320.597 C 361.600 319.867,361.814 319.600,362.400 319.600 C 362.917 319.600,363.200 319.333,363.200 318.847 C 363.200 318.430,363.557 318.000,364.000 317.884 C 364.613 317.724,364.800 317.338,364.800 316.237 C 364.800 315.067,364.948 314.800,365.600 314.800 C 366.117 314.800,366.400 314.533,366.400 314.047 C 366.400 313.630,366.757 313.200,367.200 313.084 C 367.653 312.966,368.000 312.538,368.000 312.099 C 368.000 311.673,368.360 310.998,368.800 310.600 C 369.240 310.202,369.600 309.565,369.600 309.185 C 369.600 308.804,369.960 308.399,370.400 308.284 C 370.983 308.132,371.200 307.738,371.200 306.837 C 371.200 305.995,371.395 305.600,371.810 305.600 C 372.145 305.600,372.591 305.150,372.800 304.600 C 373.009 304.050,373.356 303.600,373.572 303.600 C 373.787 303.600,374.082 302.970,374.226 302.200 C 374.377 301.398,374.726 300.800,375.045 300.800 C 375.426 300.800,375.600 300.299,375.600 299.200 C 375.600 297.867,375.733 297.600,376.400 297.600 C 377.067 297.600,377.200 297.333,377.200 296.000 C 377.200 294.667,377.333 294.400,378.000 294.400 C 378.586 294.400,378.800 294.133,378.800 293.403 C 378.800 292.840,379.148 292.190,379.600 291.907 C 380.085 291.604,380.400 290.974,380.400 290.307 C 380.400 289.640,380.715 289.010,381.200 288.707 C 381.770 288.351,382.000 287.774,382.000 286.704 C 382.000 285.467,382.142 285.200,382.800 285.200 C 383.467 285.200,383.600 284.933,383.600 283.600 C 383.600 282.267,383.733 282.000,384.400 282.000 C 385.063 282.000,385.200 281.733,385.200 280.447 C 385.200 279.230,385.373 278.848,386.000 278.684 C 386.665 278.510,386.800 278.138,386.800 276.484 C 386.800 274.830,386.935 274.458,387.600 274.284 C 388.236 274.118,388.400 273.738,388.400 272.437 C 388.400 271.310,388.572 270.800,388.953 270.800 C 389.584 270.800,389.987 269.600,389.995 267.700 C 389.998 266.858,390.196 266.400,390.557 266.400 C 391.296 266.400,391.600 265.514,391.600 263.367 C 391.600 262.063,391.757 261.600,392.200 261.600 C 392.665 261.600,392.800 261.072,392.800 259.247 C 392.800 257.230,392.914 256.863,393.600 256.684 C 394.304 256.500,394.400 256.138,394.400 253.684 C 394.400 251.230,394.496 250.868,395.200 250.684 C 395.909 250.499,396.000 250.138,396.000 247.534 C 396.000 245.026,396.118 244.519,396.800 244.093 C 397.504 243.653,397.600 243.160,397.600 239.997 C 397.600 237.189,397.722 236.400,398.157 236.400 C 399.037 236.400,399.200 235.457,399.200 230.367 C 399.200 227.456,399.356 225.600,399.600 225.600 C 399.863 225.600,400.000 216.800,400.000 200.000 C 400.000 183.200,399.863 174.400,399.600 174.400 C 399.356 174.400,399.200 172.544,399.200 169.633 C 399.200 164.543,399.037 163.600,398.157 163.600 C 397.722 163.600,397.600 162.811,397.600 160.003 C 397.600 156.840,397.504 156.347,396.800 155.907 C 396.121 155.483,396.000 154.974,396.000 152.550 C 396.000 150.030,395.906 149.669,395.200 149.484 C 394.494 149.299,394.400 148.938,394.400 146.400 C 394.400 143.862,394.306 143.501,393.600 143.316 C 392.914 143.137,392.800 142.770,392.800 140.753 C 392.800 138.928,392.665 138.400,392.200 138.400 C 391.757 138.400,391.600 137.937,391.600 136.633 C 391.600 134.486,391.296 133.600,390.557 133.600 C 390.196 133.600,389.998 133.142,389.995 132.300 C 389.987 130.400,389.584 129.200,388.953 129.200 C 388.574 129.200,388.400 128.696,388.400 127.600 C 388.400 126.267,388.267 126.000,387.600 126.000 C 386.895 126.000,386.800 125.733,386.800 123.763 C 386.800 121.862,386.680 121.494,386.000 121.316 C 385.394 121.157,385.200 120.770,385.200 119.716 C 385.200 118.662,385.006 118.275,384.400 118.116 C 383.794 117.957,383.600 117.570,383.600 116.516 C 383.600 115.462,383.406 115.075,382.800 114.916 C 382.213 114.762,382.000 114.370,382.000 113.442 C 382.000 112.635,381.710 111.967,381.200 111.600 C 380.760 111.283,380.400 110.566,380.400 110.008 C 380.400 109.426,380.059 108.779,379.600 108.493 C 379.090 108.174,378.800 107.560,378.800 106.797 C 378.800 105.867,378.622 105.600,378.000 105.600 C 377.333 105.600,377.200 105.333,377.200 104.000 C 377.200 102.667,377.067 102.400,376.400 102.400 C 375.751 102.400,375.600 102.133,375.600 100.987 C 375.600 100.145,375.374 99.488,375.039 99.360 C 374.731 99.241,374.363 98.527,374.221 97.772 C 374.068 96.956,373.728 96.400,373.382 96.400 C 373.062 96.400,372.800 96.040,372.800 95.600 C 372.800 95.067,372.533 94.800,372.000 94.800 C 371.348 94.800,371.200 94.533,371.200 93.363 C 371.200 92.262,371.013 91.876,370.400 91.716 C 369.960 91.601,369.600 91.196,369.600 90.815 C 369.600 90.435,369.240 89.798,368.800 89.400 C 368.360 89.002,368.000 88.327,368.000 87.901 C 368.000 87.462,367.653 87.034,367.200 86.916 C 366.757 86.800,366.400 86.370,366.400 85.953 C 366.400 85.467,366.117 85.200,365.600 85.200 C 364.955 85.200,364.800 84.933,364.800 83.827 C 364.800 82.831,364.592 82.388,364.043 82.214 C 363.627 82.082,363.194 81.619,363.081 81.187 C 362.967 80.754,362.588 80.400,362.237 80.400 C 361.825 80.400,361.600 80.049,361.600 79.403 C 361.600 78.840,361.252 78.190,360.800 77.907 C 360.360 77.632,360.000 77.091,360.000 76.704 C 360.000 76.267,359.697 76.000,359.200 76.000 C 358.667 76.000,358.400 75.733,358.400 75.200 C 358.400 74.756,358.133 74.400,357.800 74.400 C 357.467 74.400,357.200 74.044,357.200 73.600 C 357.200 73.067,356.933 72.800,356.400 72.800 C 355.867 72.800,355.600 72.533,355.600 72.000 C 355.600 71.560,355.240 70.840,354.800 70.400 C 354.360 69.960,354.000 69.422,354.000 69.203 C 354.000 68.985,353.640 68.582,353.200 68.307 C 352.760 68.032,352.400 67.593,352.400 67.331 C 352.400 67.068,352.059 66.746,351.643 66.614 C 351.227 66.482,350.794 66.019,350.681 65.587 C 350.567 65.154,350.209 64.800,349.884 64.800 C 349.559 64.800,349.199 64.440,349.084 64.000 C 348.969 63.560,348.588 63.200,348.237 63.200 C 347.887 63.200,347.600 62.930,347.600 62.600 C 347.600 62.267,347.244 62.000,346.800 62.000 C 346.267 62.000,346.000 61.733,346.000 61.200 C 346.000 60.667,345.733 60.400,345.200 60.400 C 344.667 60.400,344.400 60.133,344.400 59.600 C 344.400 59.067,344.133 58.800,343.600 58.800 C 343.067 58.800,342.800 58.533,342.800 58.000 C 342.800 57.556,342.533 57.200,342.200 57.200 C 341.867 57.200,341.600 56.844,341.600 56.400 C 341.600 55.867,341.333 55.600,340.800 55.600 C 340.267 55.600,340.000 55.333,340.000 54.800 C 340.000 54.283,339.733 54.000,339.247 54.000 C 338.830 54.000,338.400 53.643,338.284 53.200 C 338.169 52.760,337.788 52.400,337.437 52.400 C 337.067 52.400,336.800 52.065,336.800 51.600 C 336.800 51.083,336.533 50.800,336.047 50.800 C 335.630 50.800,335.200 50.443,335.084 50.000 C 334.969 49.560,334.609 49.200,334.284 49.200 C 333.959 49.200,333.599 48.840,333.484 48.400 C 333.369 47.960,332.988 47.600,332.637 47.600 C 332.287 47.600,332.000 47.330,332.000 47.000 C 332.000 46.670,331.758 46.400,331.462 46.400 C 331.166 46.400,330.598 46.040,330.200 45.600 C 329.799 45.157,328.968 44.800,328.338 44.800 C 327.467 44.800,327.200 44.613,327.200 44.000 C 327.200 43.467,326.933 43.200,326.400 43.200 C 325.867 43.200,325.600 42.933,325.600 42.400 C 325.600 41.960,325.342 41.600,325.027 41.600 C 324.712 41.600,324.340 41.240,324.200 40.800 C 324.060 40.360,323.642 40.000,323.269 40.000 C 322.897 40.000,322.368 39.640,322.093 39.200 C 321.810 38.748,321.160 38.400,320.597 38.400 C 319.867 38.400,319.600 38.186,319.600 37.600 C 319.600 37.083,319.333 36.800,318.847 36.800 C 318.430 36.800,318.000 36.443,317.884 36.000 C 317.743 35.460,317.338 35.200,316.641 35.200 C 316.040 35.200,315.397 34.865,315.107 34.400 C 314.832 33.960,314.312 33.600,313.950 33.600 C 313.589 33.600,313.199 33.240,313.084 32.800 C 312.967 32.353,312.538 32.000,312.113 32.000 C 311.694 32.000,310.964 31.640,310.492 31.200 C 310.020 30.760,309.356 30.400,309.017 30.400 C 308.678 30.400,308.400 30.130,308.400 29.800 C 308.400 29.381,307.978 29.200,307.000 29.200 C 305.867 29.200,305.600 29.048,305.600 28.400 C 305.600 27.876,305.333 27.600,304.827 27.600 C 304.402 27.600,303.940 27.240,303.800 26.800 C 303.613 26.212,303.195 26.000,302.220 26.000 C 301.230 26.000,300.840 25.797,300.684 25.200 C 300.524 24.587,300.138 24.400,299.037 24.400 C 297.867 24.400,297.600 24.252,297.600 23.600 C 297.600 22.933,297.333 22.800,296.000 22.800 C 294.667 22.800,294.400 22.667,294.400 22.000 C 294.400 21.380,294.133 21.200,293.214 21.200 C 292.438 21.200,291.880 20.924,291.600 20.400 C 291.333 19.901,290.762 19.600,290.082 19.600 C 289.426 19.600,288.794 19.282,288.493 18.800 C 288.154 18.257,287.560 18.000,286.643 18.000 C 285.630 18.000,285.241 17.801,285.084 17.200 C 284.925 16.594,284.538 16.400,283.484 16.400 C 282.430 16.400,282.043 16.206,281.884 15.600 C 281.724 14.987,281.338 14.800,280.237 14.800 C 279.280 14.800,278.800 14.615,278.800 14.247 C 278.800 13.639,277.612 13.214,275.887 13.205 C 275.272 13.202,274.672 12.932,274.545 12.600 C 274.393 12.206,273.768 12.000,272.720 12.000 C 271.462 12.000,271.081 11.831,270.916 11.200 C 270.739 10.525,270.370 10.400,268.553 10.400 C 266.667 10.400,266.400 10.301,266.400 9.600 C 266.400 8.889,266.133 8.800,264.000 8.800 C 261.867 8.800,261.600 8.711,261.600 8.000 C 261.600 7.289,261.333 7.200,259.200 7.200 C 257.415 7.200,256.800 7.057,256.800 6.643 C 256.800 5.862,255.898 5.600,253.214 5.600 C 251.230 5.600,250.863 5.484,250.684 4.800 C 250.498 4.089,250.138 4.000,247.437 4.000 C 245.108 4.000,244.400 3.870,244.400 3.443 C 244.400 2.620,243.482 2.400,240.056 2.400 C 237.473 2.400,236.868 2.271,236.293 1.600 C 235.676 0.879,235.113 0.800,230.604 0.800 C 227.535 0.800,225.600 0.645,225.600 0.400 C 225.600 0.138,216.800 0.000,200.000 0.000 C 183.200 0.000,174.400 0.138,174.400 0.400 M132.923 91.180 C 133.845 91.389,135.433 91.667,136.452 91.797 C 138.492 92.059,141.577 94.633,142.686 97.000 C 142.995 97.660,143.505 98.650,143.818 99.200 C 144.132 99.750,144.391 100.515,144.394 100.900 C 144.397 101.285,144.573 101.600,144.785 101.600 C 144.996 101.600,145.371 102.349,145.617 103.264 C 145.864 104.179,146.303 105.304,146.593 105.764 C 146.884 106.224,147.241 107.173,147.386 107.872 C 147.532 108.572,147.910 109.359,148.226 109.621 C 148.542 109.883,148.801 110.481,148.803 110.949 C 148.804 111.417,149.163 112.340,149.600 113.000 C 150.037 113.660,150.397 114.560,150.400 115.000 C 150.403 115.440,150.763 116.340,151.200 117.000 C 151.637 117.660,151.996 118.532,151.997 118.937 C 151.999 119.342,152.360 120.131,152.800 120.691 C 153.240 121.250,153.600 122.094,153.600 122.565 C 153.600 123.036,153.846 123.777,154.146 124.211 C 154.446 124.645,154.820 125.450,154.977 126.000 C 155.133 126.550,155.590 127.720,155.992 128.600 C 156.394 129.480,157.101 131.030,157.562 132.044 C 158.023 133.058,158.400 134.251,158.400 134.695 C 158.400 135.139,158.665 135.722,158.989 135.991 C 159.314 136.260,159.692 137.086,159.831 137.826 C 159.970 138.566,160.335 139.380,160.642 139.635 C 160.949 139.890,161.200 140.394,161.200 140.755 C 161.200 141.116,161.532 142.039,161.939 142.806 C 162.345 143.573,162.804 144.717,162.958 145.348 C 163.113 145.980,163.501 146.758,163.820 147.077 C 165.737 148.995,163.566 158.163,160.461 161.260 C 160.098 161.622,159.170 162.689,158.400 163.631 C 157.630 164.572,156.550 165.822,156.000 166.409 C 155.450 166.996,153.920 168.704,152.600 170.206 C 151.280 171.707,149.525 173.611,148.700 174.437 C 147.875 175.262,147.200 176.137,147.200 176.381 C 147.200 176.625,146.930 176.929,146.600 177.055 C 146.270 177.182,146.000 177.498,146.000 177.758 C 146.000 178.018,145.640 178.937,145.200 179.800 C 144.076 182.005,144.398 183.944,146.431 187.200 C 146.637 187.530,147.026 188.250,147.295 188.800 C 147.564 189.350,147.939 189.911,148.128 190.046 C 148.479 190.297,149.165 191.407,150.077 193.200 C 150.357 193.750,151.264 195.071,152.093 196.136 C 152.922 197.201,153.600 198.208,153.600 198.375 C 153.600 198.541,153.915 199.067,154.300 199.543 C 154.685 200.018,155.307 200.811,155.683 201.304 C 156.059 201.797,156.824 202.766,157.383 203.458 C 157.942 204.150,158.400 204.874,158.400 205.069 C 158.400 205.263,158.715 205.726,159.100 206.097 C 160.258 207.213,161.024 208.117,162.242 209.805 C 163.542 211.606,165.352 213.726,166.700 215.024 C 167.195 215.501,167.600 215.981,167.600 216.090 C 167.600 216.323,175.945 224.800,176.174 224.800 C 176.259 224.800,177.343 225.790,178.582 227.000 C 179.822 228.210,180.968 229.200,181.129 229.200 C 181.290 229.200,181.708 229.515,182.056 229.900 C 182.405 230.285,183.281 231.050,184.003 231.600 C 184.725 232.150,185.649 232.915,186.058 233.300 C 186.466 233.685,186.974 234.000,187.186 234.000 C 187.398 234.000,187.765 234.360,188.000 234.800 C 188.235 235.240,188.621 235.600,188.856 235.600 C 189.263 235.600,191.065 236.910,192.434 238.202 C 192.782 238.531,193.283 238.800,193.546 238.800 C 193.810 238.800,194.129 239.070,194.255 239.400 C 194.382 239.730,194.650 240.000,194.851 240.000 C 195.276 240.000,198.410 241.950,199.000 242.582 C 199.220 242.817,199.850 243.241,200.400 243.524 C 200.950 243.807,202.120 244.473,203.000 245.003 C 203.880 245.533,205.140 246.246,205.800 246.587 C 206.460 246.927,207.720 247.646,208.600 248.184 C 209.480 248.722,210.470 249.272,210.800 249.407 C 211.130 249.541,212.210 250.024,213.200 250.480 C 214.190 250.936,215.810 251.667,216.800 252.103 C 217.790 252.540,219.266 253.235,220.079 253.649 C 220.893 254.062,221.915 254.400,222.351 254.400 C 222.786 254.400,223.422 254.679,223.764 255.021 C 225.551 256.808,233.876 256.742,236.533 254.919 C 238.180 253.789,240.395 251.685,240.406 251.241 C 240.409 251.108,241.084 250.231,241.906 249.292 C 244.308 246.546,245.842 244.486,250.209 238.137 C 250.990 237.003,251.892 235.856,252.214 235.588 C 252.536 235.321,252.801 234.899,252.802 234.651 C 252.804 234.039,257.153 229.200,257.700 229.200 C 257.941 229.200,258.457 228.910,258.849 228.555 C 260.206 227.328,268.480 227.337,269.710 228.567 C 269.991 228.848,270.872 229.200,271.670 229.349 C 272.467 229.499,273.340 229.886,273.609 230.211 C 273.878 230.535,274.412 230.800,274.795 230.800 C 275.178 230.800,275.950 231.160,276.509 231.600 C 277.069 232.040,277.754 232.400,278.033 232.400 C 278.493 232.400,284.567 235.177,286.000 236.043 C 286.330 236.243,287.050 236.607,287.600 236.853 C 288.150 237.099,290.580 238.262,293.000 239.437 C 295.420 240.612,297.850 241.759,298.400 241.986 C 298.950 242.212,299.670 242.579,300.000 242.799 C 300.330 243.020,301.050 243.380,301.600 243.599 C 302.150 243.819,302.870 244.179,303.200 244.399 C 303.530 244.620,304.250 244.980,304.800 245.199 C 305.350 245.419,306.070 245.759,306.400 245.956 C 306.730 246.153,307.450 246.512,308.000 246.754 C 308.550 246.996,309.270 247.356,309.600 247.554 C 309.930 247.752,310.650 248.112,311.200 248.354 C 311.750 248.596,312.470 248.956,312.800 249.154 C 313.130 249.352,313.850 249.723,314.400 249.978 C 316.998 251.183,318.310 252.043,319.600 253.387 L 321.000 254.845 320.919 262.561 C 320.856 268.573,320.694 270.666,320.183 272.039 C 319.822 273.007,319.383 274.716,319.207 275.836 C 319.031 276.957,318.597 278.433,318.243 279.117 C 317.889 279.801,317.600 280.724,317.600 281.168 C 317.600 281.896,316.526 284.447,315.565 286.000 C 315.361 286.330,314.979 287.050,314.715 287.600 C 314.452 288.150,313.958 288.908,313.618 289.284 C 313.278 289.661,312.640 290.436,312.200 291.007 C 311.006 292.558,307.729 296.000,307.446 296.000 C 307.311 296.000,306.510 296.675,305.666 297.500 C 304.822 298.325,303.787 299.220,303.366 299.488 C 302.945 299.757,301.700 300.615,300.600 301.396 C 299.500 302.177,298.027 303.079,297.327 303.402 C 296.627 303.724,295.954 304.151,295.831 304.350 C 295.708 304.549,295.125 304.832,294.535 304.980 C 293.946 305.128,293.020 305.598,292.478 306.025 C 291.936 306.451,291.140 306.800,290.709 306.800 C 290.279 306.800,289.469 307.160,288.909 307.600 C 288.350 308.040,287.550 308.400,287.132 308.400 C 286.714 308.400,285.973 308.652,285.486 308.961 C 284.999 309.269,283.970 309.643,283.200 309.791 C 282.430 309.939,281.260 310.303,280.600 310.600 C 279.940 310.897,278.230 311.267,276.800 311.422 C 275.370 311.577,273.958 311.897,273.662 312.132 C 272.873 312.761,261.855 312.979,259.200 312.419 C 257.990 312.163,255.246 311.717,253.102 311.428 C 250.958 311.138,248.978 310.719,248.702 310.496 C 248.426 310.272,247.210 309.962,246.000 309.807 C 244.790 309.651,243.440 309.299,243.000 309.025 C 242.560 308.750,241.263 308.417,240.118 308.284 C 238.973 308.151,237.623 307.784,237.118 307.470 C 236.613 307.155,235.570 306.785,234.800 306.647 C 234.030 306.510,232.860 306.152,232.200 305.852 C 230.646 305.146,227.417 304.050,225.448 303.559 C 224.595 303.347,223.519 302.909,223.059 302.586 C 222.599 302.264,221.878 302.000,221.458 302.000 C 221.038 302.000,220.133 301.662,219.447 301.249 C 218.761 300.835,217.525 300.377,216.700 300.231 C 215.875 300.084,215.200 299.800,215.200 299.600 C 215.200 299.400,214.525 299.112,213.700 298.960 C 212.875 298.808,211.771 298.350,211.246 297.942 C 210.721 297.534,209.906 297.200,209.435 297.200 C 208.964 297.200,208.223 296.953,207.789 296.651 C 207.355 296.349,206.427 295.978,205.728 295.825 C 205.028 295.673,204.245 295.295,203.987 294.985 C 203.730 294.675,202.914 294.308,202.174 294.169 C 201.434 294.030,200.630 293.677,200.387 293.384 C 200.144 293.091,199.430 292.738,198.800 292.600 C 198.170 292.462,197.441 292.090,197.179 291.774 C 196.917 291.458,196.404 291.200,196.040 291.200 C 195.676 291.200,194.933 290.887,194.389 290.503 C 193.265 289.712,192.049 289.032,188.536 287.231 C 187.180 286.537,185.853 285.705,185.587 285.384 C 185.320 285.063,184.882 284.800,184.612 284.800 C 184.343 284.800,183.707 284.440,183.200 284.000 C 182.693 283.560,182.029 283.200,181.726 283.200 C 181.423 283.200,181.071 282.930,180.945 282.600 C 180.818 282.270,180.477 282.000,180.188 282.000 C 179.898 282.000,179.127 281.550,178.473 281.000 C 177.819 280.450,177.080 280.000,176.830 280.000 C 176.580 280.000,176.271 279.730,176.145 279.400 C 176.018 279.070,175.664 278.800,175.357 278.800 C 175.051 278.800,174.473 278.485,174.072 278.100 C 173.293 277.350,171.793 276.243,169.019 274.371 C 168.066 273.728,166.708 272.661,166.001 272.001 C 165.294 271.340,164.630 270.800,164.526 270.800 C 164.280 270.800,158.447 266.081,157.378 265.018 C 156.926 264.568,155.489 263.300,154.184 262.200 C 149.394 258.162,140.174 249.113,135.262 243.628 C 133.798 241.994,132.195 240.263,131.700 239.782 C 131.205 239.302,130.800 238.808,130.800 238.686 C 130.800 238.563,130.125 237.768,129.300 236.918 C 127.905 235.482,126.538 233.879,123.740 230.400 C 123.120 229.630,122.385 228.856,122.107 228.680 C 121.828 228.504,121.600 228.159,121.600 227.914 C 121.600 227.668,121.338 227.182,121.019 226.834 C 118.700 224.307,116.800 221.801,116.800 221.269 C 116.800 221.058,116.564 220.795,116.276 220.685 C 115.988 220.574,114.864 219.160,113.779 217.542 C 112.694 215.924,111.613 214.420,111.377 214.200 C 111.141 213.980,110.095 212.540,109.051 211.000 C 108.008 209.460,106.355 207.120,105.378 205.800 C 104.401 204.480,103.304 202.860,102.941 202.200 C 102.577 201.540,101.677 200.209,100.940 199.242 C 100.203 198.276,99.600 197.151,99.600 196.742 C 99.600 196.334,99.411 196.000,99.180 196.000 C 98.948 196.000,98.486 195.415,98.152 194.700 C 97.818 193.985,97.112 192.680,96.582 191.800 C 95.504 190.009,94.800 188.514,94.800 188.017 C 94.800 187.835,94.540 187.586,94.222 187.464 C 93.904 187.342,93.524 186.603,93.378 185.821 C 93.231 185.039,92.965 184.400,92.787 184.400 C 92.608 184.400,92.241 183.725,91.970 182.900 C 91.700 182.075,91.257 181.040,90.987 180.600 C 90.716 180.160,90.375 179.283,90.228 178.652 C 90.081 178.020,89.699 177.242,89.380 176.923 C 89.061 176.604,88.794 175.951,88.786 175.471 C 88.779 174.992,88.425 173.880,88.000 173.000 C 87.575 172.120,87.221 170.994,87.214 170.499 C 87.206 170.003,86.840 168.925,86.400 168.104 C 85.960 167.284,85.599 165.979,85.598 165.206 C 85.596 164.433,85.316 163.264,84.974 162.609 C 84.632 161.954,84.178 159.614,83.964 157.409 C 83.750 155.204,83.442 152.133,83.280 150.584 C 83.117 149.035,83.109 146.245,83.261 144.384 C 84.057 134.659,84.379 132.070,84.961 130.713 C 85.313 129.895,85.600 128.722,85.600 128.107 C 85.600 127.492,85.960 126.316,86.400 125.496 C 86.840 124.675,87.200 123.707,87.200 123.345 C 87.200 122.984,87.540 121.948,87.954 121.044 C 88.369 120.140,88.908 118.950,89.152 118.400 C 89.395 117.850,89.747 117.130,89.934 116.800 C 90.121 116.470,90.480 115.840,90.731 115.400 C 90.982 114.960,91.452 114.015,91.774 113.300 C 92.096 112.585,92.529 112.000,92.736 112.000 C 92.944 112.000,93.218 111.583,93.346 111.074 C 93.554 110.243,94.127 109.401,95.693 107.624 C 95.972 107.307,96.290 106.826,96.400 106.553 C 97.378 104.133,107.119 94.830,108.700 94.807 C 108.975 94.803,109.200 94.627,109.200 94.416 C 109.200 94.205,109.965 93.810,110.900 93.539 C 111.835 93.267,112.972 92.811,113.428 92.524 C 113.883 92.237,115.413 91.888,116.828 91.748 C 118.242 91.607,119.670 91.342,120.000 91.158 C 120.829 90.697,130.866 90.714,132.923 91.180 " stroke="none" fill="#4cb44c" fill-rule="evenodd"></path><path id="path2" d="M120.000 91.158 C 119.670 91.342,118.242 91.607,116.828 91.748 C 115.413 91.888,113.883 92.237,113.428 92.524 C 112.972 92.811,111.835 93.267,110.900 93.539 C 109.965 93.810,109.200 94.205,109.200 94.416 C 109.200 94.627,108.975 94.803,108.700 94.807 C 107.119 94.830,97.378 104.133,96.400 106.553 C 96.290 106.826,95.972 107.307,95.693 107.624 C 94.127 109.401,93.554 110.243,93.346 111.074 C 93.218 111.583,92.944 112.000,92.736 112.000 C 92.529 112.000,92.096 112.585,91.774 113.300 C 91.452 114.015,90.982 114.960,90.731 115.400 C 90.480 115.840,90.121 116.470,89.934 116.800 C 89.747 117.130,89.395 117.850,89.152 118.400 C 88.908 118.950,88.369 120.140,87.954 121.044 C 87.540 121.948,87.200 122.984,87.200 123.345 C 87.200 123.707,86.840 124.675,86.400 125.496 C 85.960 126.316,85.600 127.492,85.600 128.107 C 85.600 128.722,85.313 129.895,84.961 130.713 C 84.379 132.070,84.057 134.659,83.261 144.384 C 83.109 146.245,83.117 149.035,83.280 150.584 C 83.442 152.133,83.750 155.204,83.964 157.409 C 84.178 159.614,84.632 161.954,84.974 162.609 C 85.316 163.264,85.596 164.433,85.598 165.206 C 85.599 165.979,85.960 167.284,86.400 168.104 C 86.840 168.925,87.206 170.003,87.214 170.499 C 87.221 170.994,87.575 172.120,88.000 173.000 C 88.425 173.880,88.779 174.992,88.786 175.471 C 88.794 175.951,89.061 176.604,89.380 176.923 C 89.699 177.242,90.081 178.020,90.228 178.652 C 90.375 179.283,90.716 180.160,90.987 180.600 C 91.257 181.040,91.700 182.075,91.970 182.900 C 92.241 183.725,92.608 184.400,92.787 184.400 C 92.965 184.400,93.231 185.039,93.378 185.821 C 93.524 186.603,93.904 187.342,94.222 187.464 C 94.540 187.586,94.800 187.835,94.800 188.017 C 94.800 188.514,95.504 190.009,96.582 191.800 C 97.112 192.680,97.818 193.985,98.152 194.700 C 98.486 195.415,98.948 196.000,99.180 196.000 C 99.411 196.000,99.600 196.334,99.600 196.742 C 99.600 197.151,100.203 198.276,100.940 199.242 C 101.677 200.209,102.577 201.540,102.941 202.200 C 103.304 202.860,104.401 204.480,105.378 205.800 C 106.355 207.120,108.008 209.460,109.051 211.000 C 110.095 212.540,111.141 213.980,111.377 214.200 C 111.613 214.420,112.694 215.924,113.779 217.542 C 114.864 219.160,115.988 220.574,116.276 220.685 C 116.564 220.795,116.800 221.058,116.800 221.269 C 116.800 221.801,118.700 224.307,121.019 226.834 C 121.338 227.182,121.600 227.668,121.600 227.914 C 121.600 228.159,121.828 228.504,122.107 228.680 C 122.385 228.856,123.120 229.630,123.740 230.400 C 126.538 233.879,127.905 235.482,129.300 236.918 C 130.125 237.768,130.800 238.563,130.800 238.686 C 130.800 238.808,131.205 239.302,131.700 239.782 C 132.195 240.263,133.798 241.994,135.262 243.628 C 140.174 249.113,149.394 258.162,154.184 262.200 C 155.489 263.300,156.926 264.568,157.378 265.018 C 158.447 266.081,164.280 270.800,164.526 270.800 C 164.630 270.800,165.294 271.340,166.001 272.001 C 166.708 272.661,168.066 273.728,169.019 274.371 C 171.793 276.243,173.293 277.350,174.072 278.100 C 174.473 278.485,175.051 278.800,175.357 278.800 C 175.664 278.800,176.018 279.070,176.145 279.400 C 176.271 279.730,176.580 280.000,176.830 280.000 C 177.080 280.000,177.819 280.450,178.473 281.000 C 179.127 281.550,179.898 282.000,180.188 282.000 C 180.477 282.000,180.818 282.270,180.945 282.600 C 181.071 282.930,181.423 283.200,181.726 283.200 C 182.029 283.200,182.693 283.560,183.200 284.000 C 183.707 284.440,184.343 284.800,184.612 284.800 C 184.882 284.800,185.320 285.063,185.587 285.384 C 185.853 285.705,187.180 286.537,188.536 287.231 C 192.049 289.032,193.265 289.712,194.389 290.503 C 194.933 290.887,195.676 291.200,196.040 291.200 C 196.404 291.200,196.917 291.458,197.179 291.774 C 197.441 292.090,198.170 292.462,198.800 292.600 C 199.430 292.738,200.144 293.091,200.387 293.384 C 200.630 293.677,201.434 294.030,202.174 294.169 C 202.914 294.308,203.730 294.675,203.987 294.985 C 204.245 295.295,205.028 295.673,205.728 295.825 C 206.427 295.978,207.355 296.349,207.789 296.651 C 208.223 296.953,208.964 297.200,209.435 297.200 C 209.906 297.200,210.721 297.534,211.246 297.942 C 211.771 298.350,212.875 298.808,213.700 298.960 C 214.525 299.112,215.200 299.400,215.200 299.600 C 215.200 299.800,215.875 300.084,216.700 300.231 C 217.525 300.377,218.761 300.835,219.447 301.249 C 220.133 301.662,221.038 302.000,221.458 302.000 C 221.878 302.000,222.599 302.264,223.059 302.586 C 223.519 302.909,224.595 303.347,225.448 303.559 C 227.417 304.050,230.646 305.146,232.200 305.852 C 232.860 306.152,234.030 306.510,234.800 306.647 C 235.570 306.785,236.613 307.155,237.118 307.470 C 237.623 307.784,238.973 308.151,240.118 308.284 C 241.263 308.417,242.560 308.750,243.000 309.025 C 243.440 309.299,244.790 309.651,246.000 309.807 C 247.210 309.962,248.426 310.272,248.702 310.496 C 248.978 310.719,250.958 311.138,253.102 311.428 C 255.246 311.717,257.990 312.163,259.200 312.419 C 261.855 312.979,272.873 312.761,273.662 312.132 C 273.958 311.897,275.370 311.577,276.800 311.422 C 278.230 311.267,279.940 310.897,280.600 310.600 C 281.260 310.303,282.430 309.939,283.200 309.791 C 283.970 309.643,284.999 309.269,285.486 308.961 C 285.973 308.652,286.714 308.400,287.132 308.400 C 287.550 308.400,288.350 308.040,288.909 307.600 C 289.469 307.160,290.279 306.800,290.709 306.800 C 291.140 306.800,291.936 306.451,292.478 306.025 C 293.020 305.598,293.946 305.128,294.535 304.980 C 295.125 304.832,295.708 304.549,295.831 304.350 C 295.954 304.151,296.627 303.724,297.327 303.402 C 298.027 303.079,299.500 302.177,300.600 301.396 C 301.700 300.615,302.945 299.757,303.366 299.488 C 303.787 299.220,304.822 298.325,305.666 297.500 C 306.510 296.675,307.311 296.000,307.446 296.000 C 307.729 296.000,311.006 292.558,312.200 291.007 C 312.640 290.436,313.278 289.661,313.618 289.284 C 313.958 288.908,314.452 288.150,314.715 287.600 C 314.979 287.050,315.361 286.330,315.565 286.000 C 316.526 284.447,317.600 281.896,317.600 281.168 C 317.600 280.724,317.889 279.801,318.243 279.117 C 318.597 278.433,319.031 276.957,319.207 275.836 C 319.383 274.716,319.822 273.007,320.183 272.039 C 320.694 270.666,320.856 268.573,320.919 262.561 L 321.000 254.845 319.600 253.387 C 318.310 252.043,316.998 251.183,314.400 249.978 C 313.850 249.723,313.130 249.352,312.800 249.154 C 312.470 248.956,311.750 248.596,311.200 248.354 C 310.650 248.112,309.930 247.752,309.600 247.554 C 309.270 247.356,308.550 246.996,308.000 246.754 C 307.450 246.512,306.730 246.153,306.400 245.956 C 306.070 245.759,305.350 245.419,304.800 245.199 C 304.250 244.980,303.530 244.620,303.200 244.399 C 302.870 244.179,302.150 243.819,301.600 243.599 C 301.050 243.380,300.330 243.020,300.000 242.799 C 299.670 242.579,298.950 242.212,298.400 241.986 C 297.850 241.759,295.420 240.612,293.000 239.437 C 290.580 238.262,288.150 237.099,287.600 236.853 C 287.050 236.607,286.330 236.243,286.000 236.043 C 284.567 235.177,278.493 232.400,278.033 232.400 C 277.754 232.400,277.069 232.040,276.509 231.600 C 275.950 231.160,275.178 230.800,274.795 230.800 C 274.412 230.800,273.878 230.535,273.609 230.211 C 273.340 229.886,272.467 229.499,271.670 229.349 C 270.872 229.200,269.991 228.848,269.710 228.567 C 268.480 227.337,260.206 227.328,258.849 228.555 C 258.457 228.910,257.941 229.200,257.700 229.200 C 257.153 229.200,252.804 234.039,252.802 234.651 C 252.801 234.899,252.536 235.321,252.214 235.588 C 251.892 235.856,250.990 237.003,250.209 238.137 C 245.842 244.486,244.308 246.546,241.906 249.292 C 241.084 250.231,240.409 251.108,240.406 251.241 C 240.395 251.685,238.180 253.789,236.533 254.919 C 233.876 256.742,225.551 256.808,223.764 255.021 C 223.422 254.679,222.786 254.400,222.351 254.400 C 221.915 254.400,220.893 254.062,220.079 253.649 C 219.266 253.235,217.790 252.540,216.800 252.103 C 215.810 251.667,214.190 250.936,213.200 250.480 C 212.210 250.024,211.130 249.541,210.800 249.407 C 210.470 249.272,209.480 248.722,208.600 248.184 C 207.720 247.646,206.460 246.927,205.800 246.587 C 205.140 246.246,203.880 245.533,203.000 245.003 C 202.120 244.473,200.950 243.807,200.400 243.524 C 199.850 243.241,199.220 242.817,199.000 242.582 C 198.410 241.950,195.276 240.000,194.851 240.000 C 194.650 240.000,194.382 239.730,194.255 239.400 C 194.129 239.070,193.810 238.800,193.546 238.800 C 193.283 238.800,192.782 238.531,192.434 238.202 C 191.065 236.910,189.263 235.600,188.856 235.600 C 188.621 235.600,188.235 235.240,188.000 234.800 C 187.765 234.360,187.398 234.000,187.186 234.000 C 186.974 234.000,186.466 233.685,186.058 233.300 C 185.649 232.915,184.725 232.150,184.003 231.600 C 183.281 231.050,182.405 230.285,182.056 229.900 C 181.708 229.515,181.290 229.200,181.129 229.200 C 180.968 229.200,179.822 228.210,178.582 227.000 C 177.343 225.790,176.259 224.800,176.174 224.800 C 175.945 224.800,167.600 216.323,167.600 216.090 C 167.600 215.981,167.195 215.501,166.700 215.024 C 165.352 213.726,163.542 211.606,162.242 209.805 C 161.024 208.117,160.258 207.213,159.100 206.097 C 158.715 205.726,158.400 205.263,158.400 205.069 C 158.400 204.874,157.942 204.150,157.383 203.458 C 156.824 202.766,156.059 201.797,155.683 201.304 C 155.307 200.811,154.685 200.018,154.300 199.543 C 153.915 199.067,153.600 198.541,153.600 198.375 C 153.600 198.208,152.922 197.201,152.093 196.136 C 151.264 195.071,150.357 193.750,150.077 193.200 C 149.165 191.407,148.479 190.297,148.128 190.046 C 147.939 189.911,147.564 189.350,147.295 188.800 C 147.026 188.250,146.637 187.530,146.431 187.200 C 144.398 183.944,144.076 182.005,145.200 179.800 C 145.640 178.937,146.000 178.018,146.000 177.758 C 146.000 177.498,146.270 177.182,146.600 177.055 C 146.930 176.929,147.200 176.625,147.200 176.381 C 147.200 176.137,147.875 175.262,148.700 174.437 C 149.525 173.611,151.280 171.707,152.600 170.206 C 153.920 168.704,155.450 166.996,156.000 166.409 C 156.550 165.822,157.630 164.572,158.400 163.631 C 159.170 162.689,160.098 161.622,160.461 161.260 C 163.566 158.163,165.737 148.995,163.820 147.077 C 163.501 146.758,163.113 145.980,162.958 145.348 C 162.804 144.717,162.345 143.573,161.939 142.806 C 161.532 142.039,161.200 141.116,161.200 140.755 C 161.200 140.394,160.949 139.890,160.642 139.635 C 160.335 139.380,159.970 138.566,159.831 137.826 C 159.692 137.086,159.314 136.260,158.989 135.991 C 158.665 135.722,158.400 135.139,158.400 134.695 C 158.400 134.251,158.023 133.058,157.562 132.044 C 157.101 131.030,156.394 129.480,155.992 128.600 C 155.590 127.720,155.133 126.550,154.977 126.000 C 154.820 125.450,154.446 124.645,154.146 124.211 C 153.846 123.777,153.600 123.036,153.600 122.565 C 153.600 122.094,153.240 121.250,152.800 120.691 C 152.360 120.131,151.999 119.342,151.997 118.937 C 151.996 118.532,151.637 117.660,151.200 117.000 C 150.763 116.340,150.403 115.440,150.400 115.000 C 150.397 114.560,150.037 113.660,149.600 113.000 C 149.163 112.340,148.804 111.417,148.803 110.949 C 148.801 110.481,148.542 109.883,148.226 109.621 C 147.910 109.359,147.532 108.572,147.386 107.872 C 147.241 107.173,146.884 106.224,146.593 105.764 C 146.303 105.304,145.864 104.179,145.617 103.264 C 145.371 102.349,144.996 101.600,144.785 101.600 C 144.573 101.600,144.397 101.285,144.394 100.900 C 144.391 100.515,144.132 99.750,143.818 99.200 C 143.505 98.650,142.995 97.660,142.686 97.000 C 141.577 94.633,138.492 92.059,136.452 91.797 C 135.433 91.667,133.845 91.389,132.923 91.180 C 130.866 90.714,120.829 90.697,120.000 91.158 M137.384 92.619 C 139.508 93.627,141.182 95.516,142.753 98.677 C 143.497 100.175,144.255 101.702,144.438 102.071 C 144.621 102.440,145.414 104.388,146.200 106.400 C 146.986 108.412,147.782 110.360,147.969 110.729 C 148.156 111.098,148.668 112.300,149.108 113.400 C 151.025 118.202,151.728 119.898,152.423 121.400 C 152.831 122.280,153.611 124.173,154.157 125.607 C 154.704 127.041,155.431 128.751,155.773 129.407 C 156.115 130.063,156.396 130.834,156.398 131.121 C 156.399 131.407,156.755 132.307,157.188 133.121 C 157.621 133.934,158.450 135.847,159.029 137.372 C 159.609 138.896,160.231 140.426,160.413 140.772 C 163.943 147.494,164.718 151.995,162.977 155.652 C 161.774 158.179,160.557 160.286,159.882 161.011 C 159.617 161.295,158.770 162.297,158.000 163.236 C 157.230 164.174,156.150 165.425,155.600 166.015 C 155.050 166.605,153.694 168.058,152.587 169.244 C 142.514 180.035,142.090 182.126,148.113 191.304 C 149.041 192.717,149.980 194.151,150.200 194.491 C 151.137 195.935,153.814 199.832,154.121 200.200 C 154.305 200.420,155.717 202.308,157.259 204.396 C 158.800 206.483,160.184 208.283,160.333 208.396 C 160.482 208.508,161.135 209.320,161.783 210.200 C 162.431 211.080,163.544 212.430,164.257 213.200 C 164.970 213.970,165.937 215.050,166.407 215.600 C 169.986 219.791,182.548 231.704,184.702 232.950 C 185.449 233.382,186.685 234.384,187.549 235.259 C 188.145 235.863,191.819 238.456,195.800 241.084 C 202.070 245.223,204.935 246.968,207.800 248.394 C 208.680 248.832,209.670 249.350,210.000 249.546 C 211.023 250.152,217.286 253.058,219.600 254.000 C 220.810 254.493,222.520 255.217,223.400 255.610 C 233.765 260.239,236.723 258.239,252.638 235.839 C 257.325 229.243,259.612 227.782,264.786 228.082 C 266.529 228.183,268.191 228.453,268.478 228.684 C 268.765 228.914,269.450 229.236,270.000 229.399 C 271.386 229.810,274.612 231.272,284.600 236.016 C 286.360 236.852,288.070 237.640,288.400 237.766 C 288.730 237.892,289.270 238.176,289.600 238.398 C 289.930 238.619,290.650 238.980,291.200 239.199 C 291.750 239.419,292.470 239.765,292.800 239.969 C 293.130 240.174,297.900 242.533,303.400 245.213 C 308.900 247.893,314.181 250.472,315.136 250.943 C 318.592 252.650,320.259 254.668,320.570 257.523 C 321.273 263.979,319.437 274.877,316.244 283.200 C 313.969 289.129,307.473 296.166,299.472 301.367 C 296.682 303.180,287.230 308.000,286.463 308.000 C 286.165 308.000,285.354 308.264,284.660 308.586 C 283.967 308.908,282.680 309.352,281.800 309.571 C 280.920 309.791,279.210 310.226,278.000 310.538 C 271.358 312.253,265.577 312.674,260.200 311.835 C 258.220 311.526,255.520 311.158,254.200 311.017 C 252.880 310.876,250.990 310.511,250.000 310.206 C 249.010 309.901,247.390 309.472,246.400 309.251 C 242.437 308.369,238.557 307.321,237.800 306.928 C 237.360 306.699,236.370 306.397,235.600 306.255 C 234.830 306.113,233.660 305.747,233.000 305.441 C 232.340 305.134,230.360 304.416,228.600 303.843 C 223.507 302.186,221.088 301.303,219.800 300.631 C 219.140 300.287,218.284 300.004,217.899 300.002 C 217.513 300.001,216.525 299.640,215.704 299.200 C 214.884 298.760,213.930 298.400,213.586 298.400 C 213.242 298.400,212.789 298.235,212.580 298.034 C 212.371 297.833,210.522 297.016,208.471 296.220 C 206.420 295.423,204.440 294.608,204.071 294.410 C 203.702 294.211,200.790 292.772,197.600 291.212 C 191.089 288.027,186.679 285.639,185.937 284.897 C 185.664 284.624,185.289 284.400,185.104 284.400 C 184.919 284.400,184.280 284.065,183.684 283.655 C 183.088 283.245,180.734 281.670,178.454 280.155 C 172.986 276.521,173.261 276.714,168.178 272.930 C 165.747 271.119,163.307 269.224,162.758 268.719 C 162.208 268.213,161.048 267.274,160.179 266.631 C 159.311 265.988,158.310 265.178,157.955 264.831 C 157.600 264.484,155.577 262.670,153.459 260.800 C 149.124 256.972,137.439 245.232,132.597 239.840 C 130.839 237.883,129.212 236.083,128.982 235.840 C 128.615 235.453,121.916 227.246,121.113 226.200 C 120.944 225.980,120.029 224.810,119.078 223.600 C 117.010 220.967,112.865 215.398,111.933 214.000 C 111.566 213.450,110.174 211.470,108.839 209.600 C 105.889 205.468,100.261 197.187,99.856 196.383 C 99.694 196.062,99.131 195.080,98.605 194.200 C 98.079 193.320,96.988 191.340,96.181 189.800 C 95.373 188.260,94.574 186.820,94.405 186.600 C 94.236 186.380,93.965 185.750,93.802 185.200 C 93.639 184.650,93.293 183.930,93.034 183.600 C 92.774 183.270,92.143 181.920,91.629 180.600 C 91.116 179.280,90.382 177.480,89.998 176.600 C 88.672 173.567,87.600 170.583,87.600 169.928 C 87.600 169.567,87.259 168.310,86.843 167.136 C 83.003 156.299,83.007 137.453,86.853 126.464 C 87.264 125.290,87.600 124.070,87.600 123.753 C 87.600 121.674,94.446 109.614,97.792 105.800 C 98.564 104.920,99.862 103.390,100.678 102.400 C 105.267 96.831,111.881 92.862,118.000 92.008 C 122.575 91.370,135.617 91.781,137.384 92.619 " stroke="none" fill="#93cd94" fill-rule="evenodd"></path><path id="path3" d="M119.200 92.046 C 107.339 93.399,96.324 103.972,88.617 121.400 C 87.602 123.696,86.008 129.449,84.738 135.400 C 83.210 142.559,84.279 158.434,86.841 166.628 C 87.258 167.964,87.600 169.310,87.600 169.620 C 87.600 170.235,88.856 173.631,90.049 176.244 C 90.462 177.148,90.800 178.036,90.800 178.218 C 90.800 178.881,96.907 191.304,97.772 192.400 C 98.032 192.730,98.459 193.450,98.720 194.000 C 98.981 194.550,99.420 195.352,99.697 195.782 C 102.844 200.674,104.596 203.328,105.784 205.000 C 108.496 208.818,109.751 210.613,111.377 213.000 C 112.825 215.126,116.956 220.738,118.290 222.392 C 118.560 222.726,119.640 224.096,120.690 225.436 C 125.810 231.967,131.624 238.707,136.800 244.113 C 138.890 246.296,140.730 248.308,140.888 248.584 C 141.047 248.861,143.837 251.571,147.088 254.606 C 150.340 257.642,153.900 260.968,155.000 261.998 C 156.100 263.028,158.440 265.026,160.200 266.439 C 161.960 267.851,163.760 269.312,164.200 269.686 C 165.276 270.599,170.880 274.849,171.999 275.600 C 172.490 275.930,173.277 276.488,173.746 276.839 C 175.647 278.263,182.440 282.800,182.670 282.800 C 182.806 282.800,183.836 283.406,184.959 284.146 C 187.954 286.120,191.483 288.036,198.000 291.227 C 201.190 292.789,204.093 294.219,204.450 294.406 C 204.808 294.592,206.608 295.331,208.450 296.047 C 210.293 296.763,212.155 297.586,212.589 297.875 C 213.023 298.164,213.633 298.400,213.945 298.400 C 214.257 298.400,215.252 298.735,216.156 299.144 C 217.720 299.853,218.495 300.148,222.200 301.445 C 223.080 301.754,224.070 302.150,224.400 302.325 C 224.730 302.501,226.620 303.155,228.600 303.777 C 231.895 304.814,233.689 305.417,237.600 306.800 C 238.370 307.072,240.001 307.520,241.225 307.794 C 242.448 308.069,244.068 308.488,244.825 308.726 C 256.297 312.331,270.645 312.816,280.000 309.915 C 285.725 308.139,291.265 306.069,291.848 305.486 C 291.974 305.359,293.095 304.764,294.339 304.161 C 300.874 300.998,309.927 293.533,312.968 288.800 C 313.605 287.810,314.457 286.512,314.863 285.916 C 315.268 285.320,315.600 284.595,315.600 284.305 C 315.600 284.015,315.847 283.423,316.149 282.989 C 316.451 282.555,316.823 281.570,316.977 280.800 C 317.130 280.030,317.589 278.320,317.996 277.000 C 319.787 271.196,320.130 268.990,320.296 262.200 L 320.462 255.400 318.731 253.753 C 317.779 252.848,316.010 251.604,314.800 250.989 C 313.590 250.375,312.330 249.720,312.000 249.535 C 311.670 249.350,310.950 249.019,310.400 248.799 C 309.850 248.580,309.130 248.220,308.800 247.999 C 308.470 247.779,307.750 247.407,307.200 247.173 C 306.650 246.939,301.970 244.677,296.800 242.145 C 291.630 239.613,285.870 236.813,284.000 235.922 C 282.130 235.031,280.330 234.142,280.000 233.948 C 279.670 233.754,279.130 233.484,278.800 233.349 C 277.972 233.010,275.143 231.756,273.100 230.823 C 261.938 225.725,258.407 227.098,250.000 239.805 C 247.005 244.332,239.544 253.643,237.917 254.883 C 233.703 258.097,228.773 258.275,222.600 255.435 C 221.940 255.131,220.410 254.474,219.200 253.976 C 216.537 252.878,207.222 248.279,205.000 246.965 C 204.120 246.445,203.040 245.854,202.600 245.652 C 199.844 244.390,188.832 236.545,182.410 231.270 C 172.211 222.892,159.694 208.945,152.190 197.600 C 151.536 196.610,150.863 195.620,150.695 195.400 C 150.308 194.891,147.185 190.040,146.424 188.765 C 143.114 183.217,143.249 179.501,146.904 175.536 C 147.397 175.002,148.316 173.942,148.947 173.182 C 149.999 171.913,155.392 165.888,156.800 164.408 C 158.768 162.340,162.400 157.444,162.400 156.860 C 162.400 156.655,162.756 155.703,163.191 154.744 C 164.382 152.119,163.742 147.667,161.595 143.647 C 160.983 142.500,159.334 138.676,158.211 135.800 C 157.610 134.260,156.957 132.829,156.759 132.620 C 156.562 132.411,156.399 131.961,156.398 131.620 C 156.396 131.279,156.115 130.463,155.773 129.807 C 155.431 129.151,154.704 127.441,154.157 126.007 C 153.611 124.573,152.831 122.680,152.423 121.800 C 151.733 120.308,151.123 118.837,149.105 113.800 C 148.665 112.700,147.986 111.080,147.598 110.200 C 147.209 109.320,146.402 107.353,145.804 105.828 C 145.206 104.304,144.568 102.774,144.386 102.428 C 144.204 102.083,143.501 100.630,142.824 99.200 C 139.527 92.235,133.512 90.413,119.200 92.046 M137.527 93.400 C 140.025 95.556,141.305 97.047,141.869 98.455 C 142.209 99.305,142.610 100.000,142.760 100.000 C 142.911 100.000,143.251 100.810,143.516 101.800 C 143.780 102.790,144.158 103.600,144.354 103.600 C 144.550 103.600,144.834 104.256,144.985 105.058 C 145.135 105.861,145.497 106.896,145.790 107.358 C 146.082 107.821,146.441 108.773,146.586 109.472 C 146.732 110.172,147.110 110.959,147.426 111.221 C 147.742 111.483,148.000 111.994,148.000 112.355 C 148.000 112.716,148.360 113.684,148.800 114.504 C 149.240 115.325,149.600 116.203,149.600 116.455 C 149.600 116.933,150.736 119.554,152.037 122.079 C 152.457 122.893,152.801 123.883,152.803 124.279 C 152.804 124.676,153.163 125.540,153.600 126.200 C 154.037 126.860,154.396 127.783,154.397 128.251 C 154.399 128.719,154.658 129.317,154.974 129.579 C 155.290 129.841,155.670 130.628,155.817 131.328 C 155.965 132.027,156.427 133.161,156.843 133.847 C 157.259 134.533,157.600 135.465,157.600 135.919 C 157.600 136.372,157.857 137.000,158.171 137.314 C 158.485 137.628,158.864 138.534,159.013 139.328 C 159.162 140.122,159.530 140.976,159.831 141.226 C 160.132 141.476,160.492 142.286,160.631 143.026 C 160.770 143.766,161.123 144.570,161.416 144.813 C 161.709 145.056,162.064 145.828,162.205 146.528 C 162.346 147.227,162.739 148.559,163.080 149.487 C 163.420 150.414,163.598 151.584,163.476 152.087 C 162.947 154.262,161.711 157.129,160.599 158.760 C 159.940 159.728,159.220 160.792,159.000 161.125 C 158.780 161.458,157.970 162.393,157.200 163.204 C 153.592 167.004,148.553 172.577,148.030 173.346 C 147.710 173.816,147.212 174.344,146.924 174.520 C 146.636 174.696,146.400 175.101,146.400 175.420 C 146.400 175.739,146.237 176.000,146.038 176.000 C 143.662 176.000,142.792 183.363,144.757 186.844 C 145.427 188.030,146.178 189.495,146.426 190.100 C 146.675 190.705,147.038 191.200,147.234 191.200 C 147.429 191.200,147.852 191.830,148.174 192.600 C 148.496 193.370,148.948 194.000,149.180 194.000 C 149.411 194.000,149.600 194.233,149.600 194.519 C 149.600 194.804,149.870 195.389,150.200 195.819 C 150.530 196.248,151.244 197.274,151.787 198.099 C 153.592 200.839,154.565 202.139,159.075 207.833 C 161.536 210.940,164.281 214.244,165.175 215.174 C 166.069 216.104,166.800 216.968,166.800 217.093 C 166.800 217.412,176.540 227.182,176.868 227.192 C 177.016 227.196,177.832 227.875,178.682 228.700 C 181.736 231.665,191.937 239.600,192.695 239.600 C 192.973 239.600,193.200 239.750,193.200 239.933 C 193.200 240.340,196.938 242.800,197.556 242.800 C 197.800 242.800,198.000 242.950,198.000 243.133 C 198.000 243.445,201.081 245.555,202.400 246.147 C 202.730 246.295,203.720 246.841,204.600 247.360 C 206.209 248.309,215.007 252.747,218.444 254.344 C 219.458 254.815,220.561 255.200,220.895 255.200 C 221.229 255.200,221.722 255.465,221.991 255.789 C 222.260 256.114,223.137 256.499,223.940 256.646 C 224.743 256.793,225.755 257.158,226.189 257.457 C 227.307 258.227,233.535 258.175,234.576 257.387 C 235.004 257.064,235.658 256.800,236.031 256.800 C 237.083 256.800,244.400 249.286,244.400 248.206 C 244.400 248.093,244.768 247.595,245.219 247.100 C 246.538 245.649,246.958 245.102,248.213 243.200 C 248.866 242.210,249.537 241.220,249.705 241.000 C 249.872 240.780,250.569 239.880,251.253 239.000 C 251.936 238.120,252.951 236.685,253.508 235.812 C 254.821 233.754,258.374 230.000,259.009 230.000 C 259.280 230.000,259.736 229.718,260.022 229.373 C 261.129 228.039,269.944 229.278,272.031 231.061 C 272.379 231.357,273.026 231.600,273.470 231.600 C 273.914 231.600,274.693 231.960,275.200 232.400 C 275.707 232.840,276.471 233.200,276.898 233.200 C 277.325 233.200,278.131 233.560,278.691 234.000 C 279.250 234.440,279.999 234.804,280.354 234.809 C 280.709 234.814,281.450 235.170,282.000 235.600 C 282.550 236.030,283.242 236.386,283.538 236.391 C 283.834 236.396,284.554 236.669,285.138 236.997 C 285.722 237.326,286.650 237.775,287.200 237.996 C 287.750 238.217,288.470 238.579,288.800 238.799 C 289.130 239.020,289.850 239.380,290.400 239.599 C 290.950 239.819,291.670 240.164,292.000 240.366 C 293.520 241.299,296.845 242.800,297.393 242.800 C 297.727 242.800,298.000 242.966,298.000 243.169 C 298.000 243.372,298.670 243.759,299.489 244.029 C 300.308 244.300,301.230 244.772,301.537 245.080 C 301.845 245.388,302.615 245.743,303.248 245.870 C 303.882 245.996,304.400 246.250,304.400 246.434 C 304.400 246.618,305.120 246.984,306.000 247.247 C 306.880 247.511,307.600 247.871,307.600 248.047 C 307.600 248.224,308.320 248.584,309.200 248.847 C 310.080 249.111,310.800 249.464,310.800 249.632 C 310.800 249.799,311.325 250.052,311.967 250.193 C 312.609 250.334,313.537 250.798,314.028 251.225 C 314.520 251.651,315.195 252.000,315.528 252.000 C 316.140 252.000,316.695 252.436,318.824 254.589 L 320.000 255.778 319.982 261.389 C 319.970 265.253,319.784 267.498,319.384 268.600 C 319.065 269.480,318.698 271.190,318.569 272.400 C 318.439 273.610,317.989 275.443,317.567 276.474 C 317.145 277.505,316.800 278.811,316.800 279.376 C 316.800 279.941,316.440 281.075,316.000 281.896 C 315.560 282.716,315.200 283.632,315.200 283.931 C 315.200 284.230,314.840 284.931,314.400 285.491 C 313.960 286.050,313.600 286.754,313.600 287.054 C 313.600 287.354,313.450 287.600,313.268 287.600 C 313.085 287.600,312.680 288.090,312.368 288.689 C 312.055 289.289,311.170 290.437,310.400 291.243 C 309.630 292.048,308.526 293.222,307.946 293.853 C 306.747 295.158,303.838 297.622,302.857 298.162 C 302.496 298.362,301.500 299.072,300.643 299.741 C 299.787 300.410,298.568 301.237,297.935 301.578 C 294.613 303.370,289.289 305.979,288.500 306.201 C 288.005 306.340,287.600 306.614,287.600 306.809 C 287.600 307.004,286.925 307.282,286.100 307.427 C 285.275 307.571,284.225 307.924,283.767 308.210 C 283.308 308.497,282.048 308.856,280.967 309.009 C 279.885 309.162,278.608 309.533,278.128 309.834 C 275.658 311.385,255.721 311.391,251.931 309.841 C 251.199 309.542,249.559 309.171,248.287 309.018 C 247.015 308.865,245.485 308.484,244.887 308.172 C 244.289 307.860,243.260 307.598,242.600 307.589 C 241.940 307.580,240.680 307.225,239.800 306.800 C 238.920 306.375,237.747 306.021,237.194 306.014 C 236.641 306.006,235.516 305.640,234.696 305.200 C 233.875 304.760,232.797 304.394,232.301 304.386 C 231.806 304.379,230.680 304.025,229.800 303.600 C 228.920 303.175,227.884 302.821,227.499 302.814 C 227.113 302.806,226.125 302.440,225.304 302.000 C 224.484 301.560,223.494 301.200,223.104 301.200 C 222.715 301.200,221.725 300.840,220.904 300.400 C 220.084 299.960,219.026 299.600,218.555 299.600 C 218.084 299.600,217.486 299.344,217.226 299.031 C 216.966 298.718,216.055 298.344,215.200 298.200 C 214.345 298.056,213.443 297.693,213.195 297.394 C 212.948 297.096,212.172 296.734,211.472 296.591 C 210.272 296.345,209.177 295.902,205.074 294.000 C 204.124 293.560,203.064 293.200,202.717 293.200 C 202.370 293.200,201.986 292.940,201.864 292.622 C 201.742 292.304,201.003 291.924,200.221 291.778 C 199.439 291.631,198.800 291.365,198.800 291.187 C 198.800 291.008,198.125 290.642,197.300 290.373 C 196.475 290.104,195.710 289.750,195.600 289.587 C 195.490 289.424,194.770 289.006,194.000 288.659 C 192.109 287.807,187.616 285.312,186.896 284.714 C 186.254 284.181,185.125 283.493,183.600 282.707 C 181.950 281.855,179.285 280.061,179.010 279.616 C 178.869 279.387,178.493 279.200,178.176 279.200 C 177.859 279.200,177.259 278.885,176.842 278.500 C 175.025 276.822,173.896 276.000,173.409 276.000 C 173.121 276.000,172.782 275.730,172.655 275.400 C 172.529 275.070,172.227 274.800,171.986 274.800 C 171.582 274.800,167.865 272.022,166.366 270.601 C 166.018 270.270,165.532 270.000,165.286 270.000 C 165.041 270.000,164.696 269.747,164.520 269.437 C 164.344 269.127,162.651 267.636,160.757 266.123 C 158.864 264.610,157.029 263.108,156.679 262.786 C 156.330 262.464,154.940 261.210,153.591 260.000 C 149.945 256.729,137.809 244.612,134.600 241.037 C 133.060 239.321,131.566 237.670,131.279 237.367 C 130.993 237.064,129.823 235.679,128.679 234.289 C 126.295 231.392,125.638 230.610,124.800 229.669 C 124.175 228.968,120.932 224.889,119.706 223.263 C 119.318 222.748,118.724 222.028,118.386 221.663 C 118.049 221.298,117.239 220.190,116.587 219.200 C 115.936 218.210,115.177 217.256,114.901 217.080 C 114.626 216.904,114.400 216.508,114.400 216.200 C 114.400 215.892,114.165 215.496,113.877 215.320 C 113.589 215.144,112.749 214.055,112.010 212.900 C 111.270 211.745,110.544 210.800,110.397 210.800 C 110.249 210.800,109.918 210.395,109.660 209.900 C 109.402 209.405,108.878 208.541,108.496 207.981 C 108.113 207.421,107.377 206.296,106.860 205.481 C 106.344 204.666,105.759 204.000,105.560 204.000 C 105.362 204.000,105.200 203.829,105.200 203.620 C 105.200 203.411,104.615 202.403,103.900 201.379 C 103.185 200.356,102.422 199.222,102.205 198.859 C 101.987 198.497,101.249 197.300,100.563 196.200 C 99.209 194.028,98.366 192.506,97.420 190.527 C 97.086 189.827,96.643 189.150,96.437 189.023 C 96.230 188.895,95.946 188.265,95.805 187.623 C 95.664 186.981,95.302 186.250,95.000 186.000 C 94.698 185.750,94.338 185.030,94.200 184.400 C 94.062 183.770,93.695 183.045,93.385 182.787 C 93.075 182.530,92.708 181.714,92.569 180.974 C 92.430 180.234,92.065 179.420,91.758 179.165 C 91.451 178.910,91.200 178.402,91.200 178.036 C 91.200 177.669,90.840 176.663,90.400 175.800 C 89.960 174.937,89.600 173.947,89.600 173.600 C 89.600 173.253,89.240 172.263,88.800 171.400 C 88.360 170.537,87.992 169.464,87.982 169.015 C 87.973 168.567,87.686 167.480,87.345 166.600 C 87.004 165.720,86.563 163.830,86.366 162.400 C 86.168 160.970,85.735 159.122,85.403 158.292 C 84.395 155.772,84.547 137.841,85.605 134.464 C 86.042 133.070,86.400 131.306,86.400 130.544 C 86.400 129.783,86.655 128.668,86.966 128.066 C 87.277 127.465,87.657 126.302,87.811 125.482 C 87.965 124.662,88.430 123.325,88.845 122.511 C 89.260 121.697,89.600 120.731,89.600 120.364 C 89.600 119.998,89.858 119.483,90.174 119.221 C 90.490 118.959,90.862 118.230,91.000 117.600 C 91.138 116.970,91.498 116.250,91.800 116.000 C 92.102 115.750,92.461 115.032,92.599 114.406 C 92.736 113.779,93.108 113.167,93.424 113.046 C 93.741 112.924,94.000 112.577,94.000 112.275 C 94.000 111.972,94.355 111.402,94.790 111.009 C 95.224 110.616,95.684 109.964,95.813 109.560 C 96.066 108.763,96.894 107.758,101.857 102.229 C 103.649 100.233,105.511 98.330,105.995 98.000 C 106.479 97.670,107.433 96.995,108.115 96.500 C 108.797 96.005,109.568 95.600,109.829 95.600 C 110.089 95.600,110.510 95.349,110.765 95.042 C 111.020 94.735,111.897 94.360,112.714 94.209 C 113.531 94.057,114.740 93.689,115.400 93.390 C 118.316 92.069,135.995 92.077,137.527 93.400 " stroke="none" fill="#acdcac" fill-rule="evenodd"></path><path id="path4" d="M129.900 91.882 C 130.395 91.978,131.205 91.978,131.700 91.882 C 132.195 91.787,131.790 91.709,130.800 91.709 C 129.810 91.709,129.405 91.787,129.900 91.882 M172.600 222.400 C 173.459 223.280,174.252 224.000,174.362 224.000 C 174.472 224.000,173.859 223.280,173.000 222.400 C 172.141 221.520,171.348 220.800,171.238 220.800 C 171.128 220.800,171.741 221.520,172.600 222.400 M255.978 231.500 L 254.600 233.000 256.100 231.622 C 256.925 230.863,257.600 230.188,257.600 230.122 C 257.600 229.816,257.262 230.104,255.978 231.500 M138.783 246.500 C 140.441 248.266,140.800 248.584,140.800 248.283 C 140.800 248.219,139.945 247.364,138.900 246.383 L 137.000 244.600 138.783 246.500 M147.600 255.400 C 148.346 256.170,149.047 256.800,149.157 256.800 C 149.267 256.800,148.746 256.170,148.000 255.400 C 147.254 254.630,146.553 254.000,146.443 254.000 C 146.333 254.000,146.854 254.630,147.600 255.400 M320.531 260.600 C 320.533 262.140,320.605 262.721,320.692 261.891 C 320.779 261.061,320.777 259.801,320.689 259.091 C 320.600 258.381,320.529 259.060,320.531 260.600 M153.600 261.000 C 154.346 261.770,155.047 262.400,155.157 262.400 C 155.267 262.400,154.746 261.770,154.000 261.000 C 153.254 260.230,152.553 259.600,152.443 259.600 C 152.333 259.600,152.854 260.230,153.600 261.000 M264.100 312.291 C 264.925 312.378,266.275 312.378,267.100 312.291 C 267.925 312.205,267.250 312.134,265.600 312.134 C 263.950 312.134,263.275 312.205,264.100 312.291 " stroke="none" fill="#a4d4ac" fill-rule="evenodd"></path></g></svg>